<svg xmlns="http://www.w3.org/2000/svg" xmlns:xlink="http://www.w3.org/1999/xlink" width="2400" zoomAndPan="magnify" viewBox="0 0 1800 749.999995" height="1000" preserveAspectRatio="xMidYMid meet" version="1.0"><defs><g/><clipPath id="c2ad8b7cf4"><path d="M 618.507812 75 L 622.257812 75 L 622.257812 675 L 618.507812 675 Z M 618.507812 75 " clip-rule="nonzero"/></clipPath><clipPath id="00de181498"><path d="M 75 74.882812 L 531 74.882812 L 531 674.882812 L 75 674.882812 Z M 75 74.882812 " clip-rule="nonzero"/></clipPath></defs><g clip-path="url(#c2ad8b7cf4)"><path fill="currentColor" d="M 618.507812 75 L 622.257812 75 L 622.257812 675 L 618.507812 675 L 618.507812 75 " fill-opacity="1" fill-rule="nonzero"/></g><g clip-path="url(#00de181498)"><path fill="currentColor" d="M 303.625 95.972656 C 248.03125 95.972656 195.738281 117.601562 156.367188 156.859375 C 117.007812 196.121094 95.242188 248.351562 95.089844 303.933594 L 95.089844 651.78125 C 95.089844 652.820312 95.929688 653.65625 96.964844 653.65625 L 510.285156 653.65625 C 511.320312 653.65625 512.15625 652.820312 512.15625 651.78125 L 512.15625 303.933594 C 512.007812 248.351562 490.242188 196.132812 450.882812 156.875 C 411.511719 117.601562 359.214844 95.972656 303.625 95.972656 Z M 159.011719 159.519531 C 197.671875 120.960938 249.03125 99.71875 303.625 99.71875 C 358.21875 99.71875 409.578125 120.960938 448.234375 159.519531 C 477.582031 188.789062 496.949219 225.402344 504.652344 265.210938 C 502.253906 264.460938 499.757812 264.0625 497.171875 264.0625 C 483.398438 264.0625 472.199219 275.261719 472.199219 289.035156 C 472.199219 289.722656 472.234375 290.398438 472.285156 291.070312 C 469.328125 289.746094 466.128906 289.035156 462.832031 289.035156 C 450.097656 289.035156 439.734375 299.398438 439.734375 312.136719 C 439.734375 314.546875 440.105469 316.945312 440.84375 319.265625 C 441.09375 320.066406 441.832031 320.566406 442.628906 320.566406 C 442.816406 320.566406 443.003906 320.539062 443.203125 320.476562 C 444.191406 320.164062 444.726562 319.105469 444.414062 318.117188 C 443.789062 316.171875 443.480469 314.160156 443.480469 312.136719 C 443.480469 301.460938 452.15625 292.78125 462.832031 292.78125 C 466.730469 292.78125 470.476562 293.929688 473.683594 296.101562 C 473.808594 296.191406 473.945312 296.253906 474.097656 296.304688 C 474.121094 296.316406 474.160156 296.316406 474.183594 296.328125 C 474.359375 296.378906 474.546875 296.414062 474.734375 296.414062 C 474.746094 296.414062 474.757812 296.414062 474.769531 296.414062 C 474.894531 296.414062 475.019531 296.402344 475.132812 296.367188 C 475.144531 296.367188 475.15625 296.367188 475.171875 296.367188 C 475.207031 296.351562 475.246094 296.339844 475.28125 296.328125 C 475.34375 296.304688 475.40625 296.289062 475.46875 296.265625 C 475.519531 296.242188 475.570312 296.214844 475.621094 296.191406 C 475.671875 296.164062 475.734375 296.128906 475.78125 296.089844 C 475.832031 296.054688 475.882812 296.015625 475.933594 295.980469 C 475.980469 295.941406 476.019531 295.902344 476.070312 295.855469 C 476.121094 295.804688 476.15625 295.753906 476.195312 295.703125 C 476.21875 295.667969 476.246094 295.640625 476.269531 295.617188 C 476.28125 295.605469 476.28125 295.589844 476.292969 295.578125 C 476.332031 295.515625 476.355469 295.464844 476.394531 295.402344 C 476.417969 295.355469 476.445312 295.304688 476.46875 295.253906 C 476.496094 295.191406 476.507812 295.128906 476.519531 295.078125 C 476.53125 295.015625 476.558594 294.96875 476.570312 294.90625 C 476.582031 294.84375 476.582031 294.78125 476.582031 294.730469 C 476.582031 294.667969 476.59375 294.605469 476.59375 294.542969 C 476.59375 294.492188 476.582031 294.429688 476.582031 294.378906 C 476.570312 294.304688 476.570312 294.242188 476.558594 294.167969 C 476.558594 294.15625 476.558594 294.144531 476.542969 294.117188 C 476.144531 292.480469 475.933594 290.785156 475.933594 289.046875 C 475.933594 277.347656 485.460938 267.820312 497.160156 267.820312 C 500.058594 267.820312 502.828125 268.40625 505.425781 269.519531 C 507.363281 280.78125 508.359375 292.28125 508.398438 303.945312 L 508.398438 386.871094 L 488.070312 358.5 C 488.03125 358.449219 487.996094 358.425781 487.957031 358.375 C 487.933594 358.339844 487.90625 358.3125 487.871094 358.277344 C 487.84375 358.25 487.808594 358.214844 487.78125 358.1875 C 487.757812 358.164062 487.71875 358.140625 487.683594 358.113281 C 487.609375 358.050781 487.519531 358 487.445312 357.953125 C 487.40625 357.925781 487.359375 357.914062 487.320312 357.890625 C 487.246094 357.851562 487.183594 357.828125 487.109375 357.800781 C 487.082031 357.789062 487.058594 357.777344 487.019531 357.777344 C 486.984375 357.765625 486.957031 357.765625 486.921875 357.75 C 486.820312 357.726562 486.734375 357.726562 486.632812 357.714844 C 486.609375 357.714844 486.570312 357.703125 486.546875 357.703125 L 415.371094 357.703125 C 414.769531 357.703125 414.195312 357.988281 413.847656 358.488281 L 401.472656 375.769531 C 401.433594 375.820312 401.386719 375.871094 401.347656 375.921875 L 400.386719 377.269531 L 386.925781 358.488281 C 386.886719 358.4375 386.851562 358.414062 386.8125 358.363281 C 386.789062 358.328125 386.761719 358.300781 386.726562 358.265625 C 386.5 358.039062 386.238281 357.890625 385.964844 357.800781 C 385.925781 357.789062 385.886719 357.777344 385.839844 357.765625 C 385.714844 357.738281 385.589844 357.714844 385.464844 357.714844 C 385.4375 357.714844 385.414062 357.703125 385.402344 357.703125 L 314.226562 357.703125 C 313.625 357.703125 313.050781 357.988281 312.703125 358.488281 L 300.328125 375.769531 C 300.289062 375.820312 300.242188 375.871094 300.203125 375.921875 L 290.039062 390.105469 C 288.351562 389.695312 282.972656 387.882812 277.363281 380.863281 L 277.363281 372.613281 C 284.03125 379.292969 289.886719 380.027344 290.175781 380.066406 C 290.25 380.078125 290.3125 380.078125 290.386719 380.078125 C 291.324219 380.078125 292.125 379.378906 292.234375 378.417969 C 292.359375 377.394531 291.625 376.46875 290.601562 376.34375 C 290.539062 376.332031 284.105469 375.421875 277.363281 366.992188 L 277.363281 358.738281 C 284.03125 365.417969 289.886719 366.15625 290.175781 366.191406 C 290.25 366.207031 290.3125 366.207031 290.386719 366.207031 C 291.324219 366.207031 292.125 365.507812 292.234375 364.542969 C 292.359375 363.519531 291.625 362.597656 290.601562 362.472656 C 290.539062 362.460938 284.105469 361.546875 277.363281 353.117188 L 277.363281 344.863281 C 284.03125 351.546875 289.886719 352.28125 290.175781 352.320312 C 290.25 352.332031 290.3125 352.332031 290.386719 352.332031 C 291.324219 352.332031 292.125 351.632812 292.234375 350.671875 C 292.359375 349.648438 291.625 348.722656 290.601562 348.597656 C 290.539062 348.585938 283.855469 347.664062 276.976562 338.757812 C 276.628906 338.308594 276.128906 338.070312 275.601562 338.046875 C 275.566406 338.046875 275.515625 338.046875 275.480469 338.046875 C 275.429688 338.046875 275.378906 338.046875 275.328125 338.046875 C 274.804688 338.070312 274.304688 338.320312 273.957031 338.757812 C 267.101562 347.613281 260.445312 348.574219 260.332031 348.597656 C 259.308594 348.722656 258.570312 349.636719 258.683594 350.660156 C 258.785156 351.621094 259.59375 352.332031 260.542969 352.332031 C 260.605469 352.332031 260.679688 352.332031 260.757812 352.320312 C 261.042969 352.28125 266.9375 351.546875 273.628906 344.816406 L 273.628906 353.058594 C 266.898438 361.523438 260.457031 362.472656 260.332031 362.484375 C 259.308594 362.609375 258.570312 363.519531 258.683594 364.542969 C 258.785156 365.507812 259.59375 366.21875 260.542969 366.21875 C 260.605469 366.21875 260.679688 366.21875 260.757812 366.207031 C 261.042969 366.167969 266.9375 365.429688 273.628906 358.699219 L 273.628906 366.941406 C 266.898438 375.410156 260.445312 376.355469 260.332031 376.371094 C 259.308594 376.496094 258.570312 377.40625 258.683594 378.429688 C 258.785156 379.390625 259.59375 380.101562 260.542969 380.101562 C 260.605469 380.101562 260.679688 380.101562 260.757812 380.089844 C 261.042969 380.054688 266.9375 379.316406 273.628906 372.585938 L 273.628906 380.828125 C 266.898438 389.292969 260.445312 390.242188 260.332031 390.253906 C 259.308594 390.378906 258.570312 391.292969 258.683594 392.316406 C 258.785156 393.277344 259.59375 393.988281 260.542969 393.988281 C 260.605469 393.988281 260.679688 393.988281 260.757812 393.976562 C 261.042969 393.9375 266.9375 393.203125 273.628906 386.472656 L 273.628906 394.714844 C 266.898438 403.179688 260.445312 404.128906 260.332031 404.140625 C 259.308594 404.265625 258.570312 405.175781 258.683594 406.203125 C 258.785156 407.164062 259.59375 407.875 260.542969 407.875 C 260.605469 407.875 260.679688 407.875 260.757812 407.863281 C 261.042969 407.824219 266.9375 407.085938 273.628906 400.355469 L 273.628906 412.695312 C 273.628906 412.808594 273.644531 412.917969 273.667969 413.019531 L 259.03125 433.449219 C 259.03125 433.449219 259.03125 433.460938 259.019531 433.472656 C 258.933594 433.597656 258.859375 433.734375 258.808594 433.871094 C 258.796875 433.910156 258.785156 433.949219 258.769531 433.984375 C 258.734375 434.097656 258.707031 434.210938 258.695312 434.320312 C 258.695312 434.371094 258.683594 434.410156 258.683594 434.460938 C 258.683594 434.484375 258.671875 434.507812 258.671875 434.546875 L 258.671875 447.246094 L 234.921875 447.246094 L 234.921875 425.394531 C 241.589844 432.074219 247.445312 432.8125 247.734375 432.847656 C 247.808594 432.859375 247.871094 432.859375 247.945312 432.859375 C 248.882812 432.859375 249.679688 432.160156 249.792969 431.199219 C 249.917969 430.175781 249.179688 429.253906 248.15625 429.128906 C 248.09375 429.113281 241.664062 428.203125 234.921875 419.773438 L 234.921875 411.519531 C 241.589844 418.203125 247.445312 418.9375 247.734375 418.976562 C 247.808594 418.988281 247.871094 418.988281 247.945312 418.988281 C 248.882812 418.988281 249.679688 418.289062 249.792969 417.328125 C 249.917969 416.304688 249.179688 415.378906 248.15625 415.253906 C 248.09375 415.242188 241.664062 414.332031 234.921875 405.902344 L 234.921875 397.648438 C 241.589844 404.328125 247.445312 405.066406 247.734375 405.101562 C 247.808594 405.113281 247.871094 405.113281 247.945312 405.113281 C 248.882812 405.113281 249.679688 404.414062 249.792969 403.453125 C 249.917969 402.429688 249.179688 401.507812 248.15625 401.382812 C 248.09375 401.367188 241.664062 400.457031 234.921875 392.027344 L 234.921875 383.773438 C 241.589844 390.457031 247.445312 391.191406 247.734375 391.230469 C 247.808594 391.242188 247.871094 391.242188 247.945312 391.242188 C 248.882812 391.242188 249.679688 390.542969 249.792969 389.582031 C 249.917969 388.558594 249.179688 387.632812 248.15625 387.507812 C 248.09375 387.496094 241.664062 386.585938 234.921875 378.15625 L 234.921875 369.902344 C 241.589844 376.582031 247.445312 377.320312 247.734375 377.355469 C 247.808594 377.367188 247.871094 377.367188 247.945312 377.367188 C 248.882812 377.367188 249.679688 376.667969 249.792969 375.707031 C 249.917969 374.683594 249.179688 373.761719 248.15625 373.636719 C 248.09375 373.621094 241.414062 372.699219 234.535156 363.796875 C 234.183594 363.347656 233.683594 363.109375 233.160156 363.082031 C 233.121094 363.082031 233.074219 363.082031 233.035156 363.082031 C 232.984375 363.082031 232.933594 363.082031 232.898438 363.082031 C 232.375 363.109375 231.875 363.359375 231.523438 363.796875 C 224.667969 372.648438 218.011719 373.609375 217.902344 373.636719 C 216.878906 373.761719 216.140625 374.671875 216.253906 375.695312 C 216.351562 376.65625 217.164062 377.367188 218.113281 377.367188 C 218.175781 377.367188 218.25 377.367188 218.324219 377.355469 C 218.613281 377.320312 224.507812 376.582031 231.199219 369.851562 L 231.199219 378.09375 C 224.46875 386.558594 218.011719 387.507812 217.902344 387.519531 C 216.878906 387.644531 216.140625 388.558594 216.253906 389.582031 C 216.351562 390.542969 217.164062 391.253906 218.113281 391.253906 C 218.175781 391.253906 218.25 391.253906 218.324219 391.242188 C 218.613281 391.203125 224.507812 390.46875 231.199219 383.738281 L 231.199219 391.980469 C 224.46875 400.445312 218.011719 401.394531 217.902344 401.40625 C 216.878906 401.53125 216.140625 402.441406 216.253906 403.464844 C 216.351562 404.429688 217.164062 405.140625 218.113281 405.140625 C 218.175781 405.140625 218.25 405.140625 218.324219 405.128906 C 218.613281 405.089844 224.507812 404.351562 231.199219 397.621094 L 231.199219 405.863281 C 224.46875 414.332031 218.011719 415.28125 217.902344 415.292969 C 216.878906 415.417969 216.140625 416.328125 216.253906 417.351562 C 216.351562 418.3125 217.164062 419.027344 218.113281 419.027344 C 218.175781 419.027344 218.25 419.027344 218.324219 419.011719 C 218.613281 418.976562 224.507812 418.238281 231.199219 411.507812 L 231.199219 419.75 C 224.46875 428.214844 218.011719 429.164062 217.902344 429.175781 C 216.878906 429.300781 216.140625 430.214844 216.253906 431.238281 C 216.351562 432.199219 217.164062 432.910156 218.113281 432.910156 C 218.175781 432.910156 218.25 432.910156 218.324219 432.898438 C 218.613281 432.859375 224.507812 432.125 231.199219 425.394531 L 231.199219 447.308594 L 188.742188 447.308594 L 188.742188 419.363281 C 195.410156 426.042969 201.269531 426.78125 201.554688 426.816406 C 201.628906 426.828125 201.691406 426.828125 201.769531 426.828125 C 202.703125 426.828125 203.503906 426.128906 203.617188 425.167969 C 203.742188 424.144531 203.003906 423.222656 201.980469 423.097656 C 201.917969 423.082031 195.488281 422.171875 188.742188 413.742188 L 188.742188 405.488281 C 195.410156 412.171875 201.269531 412.90625 201.554688 412.945312 C 201.628906 412.957031 201.691406 412.957031 201.769531 412.957031 C 202.703125 412.957031 203.503906 412.257812 203.617188 411.296875 C 203.742188 410.273438 203.003906 409.347656 201.980469 409.222656 C 201.917969 409.210938 195.488281 408.300781 188.742188 399.871094 L 188.742188 391.617188 C 195.410156 398.296875 201.269531 399.035156 201.554688 399.070312 C 201.628906 399.082031 201.691406 399.082031 201.769531 399.082031 C 202.703125 399.082031 203.503906 398.382812 203.617188 397.421875 C 203.742188 396.398438 203.003906 395.476562 201.980469 395.351562 C 201.917969 395.335938 195.488281 394.425781 188.742188 385.996094 L 188.742188 377.742188 C 195.410156 384.425781 201.269531 385.160156 201.554688 385.199219 C 201.628906 385.210938 201.691406 385.210938 201.769531 385.210938 C 202.703125 385.210938 203.503906 384.511719 203.617188 383.550781 C 203.742188 382.527344 203.003906 381.601562 201.980469 381.476562 C 201.917969 381.464844 195.488281 380.554688 188.742188 372.125 L 188.742188 363.871094 C 195.410156 370.550781 201.269531 371.289062 201.554688 371.324219 C 201.628906 371.335938 201.691406 371.335938 201.769531 371.335938 C 202.703125 371.335938 203.503906 370.636719 203.617188 369.675781 C 203.742188 368.652344 203.003906 367.730469 201.980469 367.605469 C 201.917969 367.589844 195.488281 366.679688 188.742188 358.25 L 188.742188 349.996094 C 195.410156 356.679688 201.269531 357.414062 201.554688 357.453125 C 201.628906 357.464844 201.691406 357.464844 201.769531 357.464844 C 202.703125 357.464844 203.503906 356.765625 203.617188 355.804688 C 203.742188 354.78125 203.003906 353.855469 201.980469 353.730469 C 201.917969 353.71875 195.238281 352.792969 188.355469 343.890625 C 188.007812 343.441406 187.507812 343.203125 186.984375 343.179688 C 186.945312 343.179688 186.894531 343.179688 186.859375 343.179688 C 186.808594 343.179688 186.757812 343.179688 186.707031 343.179688 C 186.183594 343.21875 185.683594 343.453125 185.335938 343.890625 C 178.480469 352.746094 171.824219 353.707031 171.710938 353.730469 C 170.6875 353.855469 169.949219 354.765625 170.0625 355.792969 C 170.164062 356.753906 170.976562 357.464844 171.925781 357.464844 C 171.988281 357.464844 172.0625 357.464844 172.136719 357.453125 C 172.421875 357.414062 178.316406 356.679688 185.011719 349.949219 L 185.011719 358.1875 C 178.28125 366.65625 171.835938 367.605469 171.710938 367.617188 C 170.6875 367.742188 169.949219 368.652344 170.0625 369.675781 C 170.164062 370.636719 170.976562 371.351562 171.925781 371.351562 C 171.988281 371.351562 172.0625 371.351562 172.136719 371.335938 C 172.421875 371.300781 178.316406 370.5625 185.011719 363.832031 L 185.011719 372.074219 C 178.28125 380.539062 171.824219 381.488281 171.710938 381.503906 C 170.6875 381.625 169.949219 382.539062 170.0625 383.5625 C 170.164062 384.523438 170.976562 385.234375 171.925781 385.234375 C 171.984375 385.234375 172.0625 385.234375 172.136719 385.222656 C 172.421875 385.1875 178.316406 384.449219 185.011719 377.71875 L 185.011719 385.960938 C 178.28125 394.425781 171.824219 395.375 171.710938 395.386719 C 170.6875 395.511719 169.949219 396.425781 170.0625 397.449219 C 170.164062 398.410156 170.976562 399.121094 171.925781 399.121094 C 171.984375 399.121094 172.0625 399.121094 172.136719 399.109375 C 172.421875 399.070312 178.316406 398.335938 185.011719 391.605469 L 185.011719 399.84375 C 178.28125 408.3125 171.824219 409.261719 171.710938 409.273438 C 170.6875 409.398438 169.949219 410.308594 170.0625 411.332031 C 170.164062 412.292969 170.976562 413.007812 171.925781 413.007812 C 171.984375 413.007812 172.0625 413.007812 172.136719 412.996094 C 172.421875 412.957031 178.316406 412.21875 185.011719 405.488281 L 185.011719 413.730469 C 178.28125 422.195312 171.824219 423.144531 171.710938 423.160156 C 170.6875 423.285156 169.949219 424.195312 170.0625 425.21875 C 170.164062 426.179688 170.976562 426.890625 171.925781 426.890625 C 171.984375 426.890625 172.0625 426.890625 172.136719 426.878906 C 172.421875 426.84375 178.316406 426.105469 185.011719 419.375 L 185.011719 447.382812 L 164.394531 447.382812 L 164.394531 439.902344 C 164.394531 431.226562 157.328125 424.15625 148.648438 424.15625 C 145.726562 424.15625 142.941406 424.957031 140.507812 426.441406 C 139.234375 419.3125 133.015625 413.878906 125.523438 413.878906 C 121.851562 413.878906 118.417969 415.191406 115.71875 417.476562 C 114.148438 410.148438 107.617188 404.628906 99.824219 404.628906 C 99.5 404.628906 99.164062 404.640625 98.835938 404.664062 L 98.835938 304.109375 C 98.988281 249.363281 120.351562 198.066406 159.011719 159.519531 Z M 486.246094 613.421875 C 482.960938 610.414062 478.667969 608.703125 474.070312 608.703125 C 464.96875 608.703125 457.4375 615.457031 456.179688 624.210938 C 453.15625 622.25 449.648438 621.191406 445.976562 621.191406 C 435.648438 621.191406 427.246094 629.59375 427.246094 639.921875 L 427.246094 649.910156 L 422.875 649.910156 L 422.875 590.597656 C 422.875 590.472656 422.863281 590.359375 422.835938 590.246094 C 422.835938 590.246094 422.835938 590.234375 422.835938 590.234375 C 422.800781 590.074219 422.75 589.921875 422.675781 589.773438 C 422.664062 589.734375 422.636719 589.710938 422.625 589.671875 C 422.539062 589.523438 422.449219 589.386719 422.324219 589.273438 L 361.140625 528.085938 C 360.789062 527.738281 360.316406 527.539062 359.816406 527.539062 L 246.183594 527.539062 C 245.960938 527.539062 245.746094 527.585938 245.546875 527.664062 C 245.484375 527.6875 245.433594 527.710938 245.386719 527.738281 C 245.234375 527.8125 245.085938 527.898438 244.960938 528.023438 C 244.933594 528.050781 244.898438 528.0625 244.859375 528.085938 L 183.675781 589.273438 C 183.324219 589.621094 183.125 590.097656 183.125 590.597656 L 183.125 649.910156 L 173.757812 649.910156 L 173.757812 553.761719 L 206.851562 553.761719 C 207.886719 553.761719 208.722656 552.921875 208.722656 551.886719 C 208.722656 550.851562 207.886719 550.015625 206.851562 550.015625 L 172.8125 550.015625 L 152.644531 523.605469 L 251.804688 523.605469 C 252.839844 523.605469 253.675781 522.765625 253.675781 521.730469 C 253.675781 520.695312 252.839844 519.859375 251.804688 519.859375 L 151.28125 519.859375 C 150.832031 519.859375 150.433594 520.019531 150.109375 520.28125 L 136.949219 503.050781 L 251.804688 503.050781 C 252.839844 503.050781 253.675781 502.214844 253.675781 501.175781 C 253.675781 500.140625 252.839844 499.304688 251.804688 499.304688 L 134.089844 499.304688 L 123.226562 485.082031 L 251.804688 485.082031 C 252.839844 485.082031 253.675781 484.246094 253.675781 483.207031 C 253.675781 482.171875 252.839844 481.335938 251.804688 481.335938 L 119.441406 481.335938 C 119.417969 481.335938 119.390625 481.347656 119.367188 481.347656 C 119.242188 481.347656 119.117188 481.371094 118.992188 481.398438 C 118.953125 481.410156 118.917969 481.410156 118.878906 481.421875 C 118.742188 481.472656 118.605469 481.523438 118.46875 481.609375 C 118.441406 481.621094 118.417969 481.648438 118.378906 481.671875 C 118.28125 481.734375 118.191406 481.808594 118.105469 481.898438 C 118.066406 481.933594 118.042969 481.960938 118.003906 481.996094 C 117.980469 482.023438 117.957031 482.046875 117.941406 482.070312 L 98.835938 507.109375 L 98.835938 450.953125 L 162.496094 450.953125 C 162.507812 450.953125 162.507812 450.953125 162.519531 450.953125 C 162.535156 450.953125 162.535156 450.953125 162.546875 450.953125 L 258.671875 450.953125 L 258.671875 521.917969 C 258.671875 522.953125 259.507812 523.792969 260.542969 523.792969 C 261.582031 523.792969 262.417969 522.953125 262.417969 521.917969 L 262.417969 436.382812 L 329.847656 436.382812 L 329.847656 521.917969 C 329.847656 522.953125 330.683594 523.792969 331.71875 523.792969 C 332.757812 523.792969 333.59375 522.953125 333.59375 521.917969 L 333.59375 435.109375 L 345.617188 418.3125 C 345.65625 418.265625 345.707031 418.214844 345.742188 418.164062 L 385.414062 362.796875 L 437.234375 435.109375 L 437.234375 613.074219 C 437.234375 614.109375 438.070312 614.945312 439.109375 614.945312 C 440.144531 614.945312 440.980469 614.109375 440.980469 613.074219 L 440.980469 434.507812 C 440.980469 434.121094 440.855469 433.734375 440.632812 433.421875 L 438.285156 430.152344 L 446.761719 418.3125 C 446.800781 418.265625 446.851562 418.214844 446.886719 418.164062 L 486.558594 362.796875 L 508.410156 393.289062 L 508.410156 452.617188 L 499.046875 452.617188 C 498.007812 452.617188 497.171875 453.453125 497.171875 454.488281 L 497.171875 469.472656 C 497.171875 470.507812 498.007812 471.347656 499.046875 471.347656 L 508.410156 471.347656 L 508.410156 486.332031 L 499.046875 486.332031 C 498.007812 486.332031 497.171875 487.167969 497.171875 488.203125 L 497.171875 503.1875 C 497.171875 504.222656 498.007812 505.0625 499.046875 505.0625 L 508.410156 505.0625 L 508.410156 520.046875 L 499.046875 520.046875 C 498.007812 520.046875 497.171875 520.882812 497.171875 521.917969 L 497.171875 536.902344 C 497.171875 537.9375 498.007812 538.777344 499.046875 538.777344 L 508.410156 538.777344 L 508.410156 597.726562 C 507.386719 597.566406 506.339844 597.464844 505.289062 597.464844 C 495.773438 597.464844 487.871094 604.371094 486.246094 613.421875 Z M 276.777344 607.453125 L 253.050781 607.453125 C 252.015625 607.453125 251.179688 608.289062 251.179688 609.328125 L 251.179688 649.910156 L 186.871094 649.910156 L 186.871094 591.371094 L 246.183594 532.058594 L 305.496094 591.371094 L 305.496094 649.910156 L 278.648438 649.910156 L 278.648438 609.328125 C 278.648438 608.289062 277.8125 607.453125 276.777344 607.453125 Z M 308.144531 588.722656 L 289.414062 569.992188 L 396.640625 569.992188 C 396.964844 569.992188 397.25 569.90625 397.515625 569.769531 L 416.46875 588.722656 Z M 285.667969 566.246094 L 269.433594 550.015625 L 376.660156 550.015625 C 376.984375 550.015625 377.273438 549.925781 377.535156 549.789062 L 393.992188 566.246094 Z M 265.6875 546.269531 L 250.703125 531.285156 L 359.042969 531.285156 L 374.027344 546.269531 Z M 309.242188 592.46875 L 419.128906 592.46875 L 419.128906 649.910156 L 309.242188 649.910156 Z M 142.265625 590.757812 L 142.265625 649.910156 L 121.3125 649.910156 L 121.3125 590.757812 Z M 144.140625 587.011719 L 98.835938 587.011719 L 98.835938 513.265625 L 119.441406 486.28125 L 170.011719 552.523438 L 170.011719 649.910156 L 146.011719 649.910156 L 146.011719 588.886719 C 146.011719 587.847656 145.175781 587.011719 144.140625 587.011719 Z M 112.296875 421.886719 C 112.296875 421.949219 112.296875 422.023438 112.296875 422.085938 C 112.296875 422.148438 112.3125 422.210938 112.324219 422.257812 C 112.335938 422.320312 112.347656 422.371094 112.359375 422.433594 C 112.375 422.496094 112.398438 422.546875 112.421875 422.609375 C 112.449219 422.660156 112.472656 422.722656 112.5 422.773438 C 112.523438 422.820312 112.546875 422.871094 112.585938 422.921875 C 112.625 422.972656 112.648438 423.019531 112.699219 423.070312 C 112.734375 423.121094 112.773438 423.160156 112.8125 423.207031 C 112.847656 423.246094 112.898438 423.296875 112.933594 423.332031 C 112.984375 423.371094 113.035156 423.421875 113.097656 423.457031 C 113.121094 423.484375 113.148438 423.507812 113.183594 423.519531 C 113.210938 423.535156 113.222656 423.535156 113.246094 423.546875 C 113.308594 423.582031 113.371094 423.609375 113.433594 423.632812 C 113.484375 423.65625 113.535156 423.683594 113.597656 423.695312 C 113.660156 423.71875 113.722656 423.734375 113.785156 423.746094 C 113.847656 423.757812 113.910156 423.769531 113.972656 423.78125 C 113.996094 423.78125 114.023438 423.796875 114.046875 423.796875 C 114.097656 423.796875 114.148438 423.796875 114.195312 423.796875 C 114.210938 423.796875 114.210938 423.796875 114.222656 423.796875 C 114.433594 423.796875 114.644531 423.746094 114.847656 423.683594 C 114.871094 423.671875 114.894531 423.671875 114.921875 423.660156 C 115.109375 423.582031 115.28125 423.472656 115.433594 423.332031 C 115.457031 423.308594 115.46875 423.296875 115.496094 423.285156 C 115.609375 423.171875 115.707031 423.058594 115.796875 422.921875 C 117.894531 419.511719 121.550781 417.464844 125.558594 417.464844 C 131.890625 417.464844 137.046875 422.621094 137.046875 428.953125 C 137.046875 429.214844 137.035156 429.476562 137.011719 429.738281 C 137.011719 429.789062 137.011719 429.839844 137.011719 429.890625 C 137.011719 429.902344 137.011719 429.914062 137.011719 429.9375 C 137.011719 430.175781 137.058594 430.402344 137.136719 430.613281 C 137.136719 430.625 137.148438 430.625 137.148438 430.636719 C 137.234375 430.863281 137.371094 431.0625 137.546875 431.238281 C 137.546875 431.238281 137.546875 431.238281 137.546875 431.25 C 137.546875 431.25 137.546875 431.25 137.558594 431.25 C 137.734375 431.425781 137.933594 431.550781 138.160156 431.648438 C 138.171875 431.648438 138.171875 431.664062 138.183594 431.664062 C 138.347656 431.726562 138.507812 431.773438 138.695312 431.800781 C 138.757812 431.800781 138.820312 431.8125 138.882812 431.8125 C 139.132812 431.8125 139.359375 431.761719 139.582031 431.675781 C 139.621094 431.664062 139.65625 431.625 139.695312 431.613281 C 139.871094 431.523438 140.03125 431.425781 140.167969 431.300781 C 140.183594 431.289062 140.195312 431.289062 140.207031 431.273438 C 142.480469 429.015625 145.488281 427.777344 148.6875 427.777344 C 155.304688 427.777344 160.6875 433.160156 160.6875 439.777344 L 160.6875 447.257812 L 98.835938 447.257812 L 98.835938 408.324219 C 99.164062 408.300781 99.5 408.25 99.824219 408.25 C 106.730469 408.25 112.335938 413.867188 112.335938 420.761719 C 112.335938 421.109375 112.3125 421.472656 112.285156 421.824219 C 112.296875 421.808594 112.296875 421.847656 112.296875 421.886719 Z M 371.964844 375.144531 L 305.398438 375.144531 L 315.199219 361.460938 L 381.769531 361.460938 Z M 302.699219 378.890625 L 369.28125 378.890625 L 357.617188 395.175781 L 291.039062 395.175781 Z M 343.257812 415.203125 L 276.675781 415.203125 L 288.339844 398.921875 L 354.921875 398.921875 Z M 282.820312 400.207031 C 280.910156 398.722656 279.074219 396.898438 277.375 394.75 L 277.375 386.496094 C 281.535156 390.667969 285.367188 392.527344 287.742188 393.328125 Z M 277.375 400.382812 C 278.425781 401.445312 279.523438 402.394531 280.636719 403.253906 L 277.375 407.8125 Z M 274.019531 418.925781 C 274.105469 418.9375 274.191406 418.949219 274.292969 418.949219 L 340.5625 418.949219 L 330.757812 432.636719 L 264.191406 432.636719 Z M 430.265625 418.949219 L 441.707031 418.949219 L 435.988281 426.941406 Z M 444.402344 415.203125 L 427.582031 415.203125 L 415.917969 398.921875 L 456.078125 398.921875 Z M 458.75 395.175781 L 413.222656 395.175781 L 402.695312 380.492188 L 403.84375 378.890625 L 470.425781 378.890625 Z M 473.109375 375.144531 L 406.542969 375.144531 L 416.34375 361.460938 L 482.914062 361.460938 Z M 508.410156 456.363281 L 508.410156 467.601562 L 500.917969 467.601562 L 500.917969 456.363281 Z M 508.410156 490.078125 L 508.410156 501.316406 L 500.917969 501.316406 L 500.917969 490.078125 Z M 508.410156 523.792969 L 508.410156 535.03125 L 500.917969 535.03125 L 500.917969 523.792969 Z M 98.835938 590.757812 L 117.566406 590.757812 L 117.566406 649.910156 L 98.835938 649.910156 Z M 254.925781 649.910156 L 254.925781 611.199219 L 274.902344 611.199219 L 274.902344 649.910156 Z M 439.109375 649.910156 L 430.992188 649.910156 L 430.992188 639.921875 C 430.992188 631.652344 437.710938 624.9375 445.976562 624.9375 C 449.960938 624.9375 453.730469 626.496094 456.566406 629.304688 C 456.578125 629.320312 456.589844 629.320312 456.601562 629.332031 C 456.753906 629.46875 456.914062 629.570312 457.101562 629.65625 C 457.140625 629.667969 457.164062 629.707031 457.203125 629.71875 C 457.414062 629.804688 457.652344 629.855469 457.886719 629.855469 C 457.886719 629.855469 457.886719 629.855469 457.902344 629.855469 C 457.964844 629.855469 458.011719 629.855469 458.074219 629.84375 C 458.25 629.832031 458.414062 629.78125 458.5625 629.71875 C 458.589844 629.707031 458.613281 629.695312 458.648438 629.679688 C 458.851562 629.59375 459.039062 629.46875 459.1875 629.320312 C 459.199219 629.304688 459.210938 629.304688 459.226562 629.292969 C 459.238281 629.28125 459.238281 629.269531 459.25 629.257812 C 459.398438 629.09375 459.523438 628.917969 459.613281 628.707031 C 459.625 628.683594 459.636719 628.65625 459.648438 628.632812 C 459.722656 628.433594 459.761719 628.234375 459.761719 628.019531 C 459.761719 627.984375 459.761719 627.957031 459.761719 627.921875 C 459.761719 627.882812 459.761719 627.832031 459.761719 627.796875 C 459.722656 627.472656 459.722656 627.144531 459.722656 626.808594 C 459.722656 618.890625 466.167969 612.449219 474.085938 612.449219 C 479.089844 612.449219 483.660156 614.996094 486.285156 619.265625 C 486.371094 619.402344 486.472656 619.527344 486.582031 619.628906 C 486.609375 619.652344 486.621094 619.667969 486.644531 619.679688 C 486.796875 619.816406 486.972656 619.929688 487.15625 620.003906 C 487.183594 620.015625 487.207031 620.015625 487.234375 620.027344 C 487.433594 620.101562 487.632812 620.140625 487.84375 620.140625 C 487.855469 620.140625 487.855469 620.140625 487.871094 620.140625 C 487.917969 620.140625 487.96875 620.140625 488.019531 620.140625 C 488.042969 620.140625 488.070312 620.128906 488.082031 620.128906 C 488.144531 620.117188 488.207031 620.101562 488.269531 620.089844 C 488.332031 620.078125 488.394531 620.066406 488.445312 620.039062 C 488.496094 620.027344 488.542969 620.003906 488.605469 619.980469 C 488.667969 619.953125 488.730469 619.929688 488.792969 619.890625 C 488.820312 619.878906 488.832031 619.878906 488.855469 619.867188 C 488.882812 619.839844 488.90625 619.816406 488.945312 619.804688 C 488.992188 619.765625 489.042969 619.730469 489.09375 619.691406 C 489.144531 619.652344 489.179688 619.605469 489.230469 619.566406 C 489.269531 619.527344 489.304688 619.480469 489.34375 619.429688 C 489.378906 619.378906 489.417969 619.328125 489.457031 619.28125 C 489.480469 619.230469 489.519531 619.179688 489.542969 619.128906 C 489.566406 619.078125 489.59375 619.015625 489.617188 618.96875 C 489.644531 618.917969 489.65625 618.855469 489.679688 618.804688 C 489.691406 618.742188 489.707031 618.679688 489.71875 618.617188 C 489.730469 618.566406 489.730469 618.503906 489.742188 618.457031 C 489.753906 618.378906 489.753906 618.316406 489.742188 618.242188 C 489.742188 618.207031 489.742188 618.179688 489.742188 618.15625 C 489.707031 617.71875 489.691406 617.28125 489.691406 616.84375 C 489.691406 608.242188 496.699219 601.234375 505.300781 601.234375 C 506.363281 601.234375 507.398438 601.347656 508.421875 601.558594 L 508.421875 649.933594 L 439.109375 649.933594 Z M 463.933594 141.425781 C 420.914062 98.523438 363.761719 74.882812 303 74.882812 C 242.238281 74.882812 185.085938 98.523438 142.066406 141.425781 C 99.050781 184.332031 75.273438 241.410156 75.113281 302.148438 L 75.113281 673.011719 C 75.113281 674.046875 75.949219 674.882812 76.984375 674.882812 L 529.015625 674.882812 C 530.050781 674.882812 530.886719 674.046875 530.886719 673.011719 L 530.886719 302.148438 C 530.726562 241.410156 506.949219 184.332031 463.933594 141.425781 Z M 527.140625 671.136719 L 78.859375 671.136719 L 78.859375 302.148438 C 79.019531 242.410156 102.410156 186.269531 144.714844 144.074219 C 187.019531 101.867188 243.238281 78.628906 303 78.628906 C 362.761719 78.628906 418.980469 101.867188 461.285156 144.074219 C 503.589844 186.28125 526.980469 242.410156 527.140625 302.148438 Z M 372.925781 452.617188 L 357.941406 452.617188 C 356.90625 452.617188 356.070312 453.453125 356.070312 454.488281 L 356.070312 469.472656 C 356.070312 470.507812 356.90625 471.347656 357.941406 471.347656 L 372.925781 471.347656 C 373.964844 471.347656 374.800781 470.507812 374.800781 469.472656 L 374.800781 454.488281 C 374.800781 453.453125 373.964844 452.617188 372.925781 452.617188 Z M 371.054688 467.601562 L 359.816406 467.601562 L 359.816406 456.363281 L 371.054688 456.363281 Z M 372.925781 486.332031 L 357.941406 486.332031 C 356.90625 486.332031 356.070312 487.167969 356.070312 488.203125 L 356.070312 503.1875 C 356.070312 504.222656 356.90625 505.0625 357.941406 505.0625 L 372.925781 505.0625 C 373.964844 505.0625 374.800781 504.222656 374.800781 503.1875 L 374.800781 488.203125 C 374.800781 487.167969 373.964844 486.332031 372.925781 486.332031 Z M 371.054688 501.316406 L 359.816406 501.316406 L 359.816406 490.078125 L 371.054688 490.078125 Z M 374.800781 521.917969 L 374.800781 533.15625 C 374.800781 534.191406 373.964844 535.03125 372.925781 535.03125 C 371.890625 535.03125 371.054688 534.191406 371.054688 533.15625 L 371.054688 523.792969 L 357.941406 523.792969 C 356.90625 523.792969 356.070312 522.953125 356.070312 521.917969 C 356.070312 520.882812 356.90625 520.046875 357.941406 520.046875 L 372.925781 520.046875 C 373.964844 520.046875 374.800781 520.882812 374.800781 521.917969 Z M 412.886719 452.617188 L 397.902344 452.617188 C 396.863281 452.617188 396.027344 453.453125 396.027344 454.488281 L 396.027344 469.472656 C 396.027344 470.507812 396.863281 471.347656 397.902344 471.347656 L 412.886719 471.347656 C 413.921875 471.347656 414.757812 470.507812 414.757812 469.472656 L 414.757812 454.488281 C 414.757812 453.453125 413.921875 452.617188 412.886719 452.617188 Z M 411.011719 467.601562 L 399.773438 467.601562 L 399.773438 456.363281 L 411.011719 456.363281 Z M 412.886719 486.332031 L 397.902344 486.332031 C 396.863281 486.332031 396.027344 487.167969 396.027344 488.203125 L 396.027344 503.1875 C 396.027344 504.222656 396.863281 505.0625 397.902344 505.0625 L 412.886719 505.0625 C 413.921875 505.0625 414.757812 504.222656 414.757812 503.1875 L 414.757812 488.203125 C 414.757812 487.167969 413.921875 486.332031 412.886719 486.332031 Z M 411.011719 501.316406 L 399.773438 501.316406 L 399.773438 490.078125 L 411.011719 490.078125 Z M 412.886719 520.046875 L 397.902344 520.046875 C 396.863281 520.046875 396.027344 520.882812 396.027344 521.917969 L 396.027344 536.902344 C 396.027344 537.9375 396.863281 538.777344 397.902344 538.777344 L 412.886719 538.777344 C 413.921875 538.777344 414.757812 537.9375 414.757812 536.902344 L 414.757812 521.917969 C 414.757812 520.882812 413.921875 520.046875 412.886719 520.046875 Z M 411.011719 535.03125 L 399.773438 535.03125 L 399.773438 523.792969 L 411.011719 523.792969 Z M 346.703125 607.453125 L 331.71875 607.453125 C 330.683594 607.453125 329.847656 608.289062 329.847656 609.328125 L 329.847656 624.3125 C 329.847656 625.347656 330.683594 626.183594 331.71875 626.183594 L 346.703125 626.183594 C 347.742188 626.183594 348.578125 625.347656 348.578125 624.3125 L 348.578125 609.328125 C 348.578125 608.289062 347.742188 607.453125 346.703125 607.453125 Z M 344.832031 622.4375 L 333.59375 622.4375 L 333.59375 611.199219 L 344.832031 611.199219 Z M 230.574219 607.453125 L 215.589844 607.453125 C 214.554688 607.453125 213.71875 608.289062 213.71875 609.328125 L 213.71875 624.3125 C 213.71875 625.347656 214.554688 626.183594 215.589844 626.183594 L 230.574219 626.183594 C 231.613281 626.183594 232.449219 625.347656 232.449219 624.3125 L 232.449219 609.328125 C 232.449219 608.289062 231.613281 607.453125 230.574219 607.453125 Z M 228.703125 622.4375 L 217.464844 622.4375 L 217.464844 611.199219 L 228.703125 611.199219 Z M 386.664062 607.453125 L 371.679688 607.453125 C 370.640625 607.453125 369.804688 608.289062 369.804688 609.328125 L 369.804688 624.3125 C 369.804688 625.347656 370.640625 626.183594 371.679688 626.183594 L 386.664062 626.183594 C 387.699219 626.183594 388.535156 625.347656 388.535156 624.3125 L 388.535156 609.328125 C 388.535156 608.289062 387.699219 607.453125 386.664062 607.453125 Z M 384.789062 622.4375 L 373.550781 622.4375 L 373.550781 611.199219 L 384.789062 611.199219 Z M 246.183594 569.992188 C 239.304688 569.992188 233.695312 575.601562 233.695312 582.480469 C 233.695312 589.359375 239.304688 594.96875 246.183594 594.96875 C 253.066406 594.96875 258.671875 589.359375 258.671875 582.480469 C 258.671875 575.601562 253.066406 569.992188 246.183594 569.992188 Z M 246.183594 591.222656 C 241.363281 591.222656 237.441406 587.300781 237.441406 582.480469 C 237.441406 577.660156 241.363281 573.738281 246.183594 573.738281 C 251.003906 573.738281 254.925781 577.660156 254.925781 582.480469 C 254.925781 587.300781 251.003906 591.222656 246.183594 591.222656 Z M 118.816406 538.777344 C 111.9375 538.777344 106.328125 544.382812 106.328125 551.261719 C 106.328125 558.144531 111.9375 563.75 118.816406 563.75 C 125.695312 563.75 131.304688 558.144531 131.304688 551.261719 C 131.304688 544.382812 125.695312 538.777344 118.816406 538.777344 Z M 118.816406 560.003906 C 113.996094 560.003906 110.074219 556.082031 110.074219 551.261719 C 110.074219 546.441406 113.996094 542.523438 118.816406 542.523438 C 123.636719 542.523438 127.558594 546.441406 127.558594 551.261719 C 127.558594 556.082031 123.636719 560.003906 118.816406 560.003906 Z M 394.71875 415.917969 C 392.457031 413.058594 389.058594 411.410156 385.414062 411.410156 C 381.769531 411.410156 378.371094 413.058594 376.125 415.917969 C 374.464844 418 373.550781 420.609375 373.550781 423.269531 C 373.550781 429.8125 378.871094 435.132812 385.414062 435.132812 C 391.957031 435.132812 397.277344 429.8125 397.277344 423.269531 C 397.277344 420.609375 396.363281 418 394.71875 415.917969 Z M 385.414062 431.386719 C 380.945312 431.386719 377.296875 427.742188 377.296875 423.269531 C 377.296875 421.449219 377.921875 419.664062 379.058594 418.238281 C 380.605469 416.277344 382.917969 415.15625 385.414062 415.15625 C 387.910156 415.15625 390.222656 416.277344 391.769531 418.238281 C 392.90625 419.664062 393.53125 421.449219 393.53125 423.269531 C 393.53125 427.742188 389.882812 431.386719 385.414062 431.386719 Z M 474.070312 452.617188 L 459.085938 452.617188 C 458.050781 452.617188 457.214844 453.453125 457.214844 454.488281 L 457.214844 469.472656 C 457.214844 470.507812 458.050781 471.347656 459.085938 471.347656 L 474.070312 471.347656 C 475.109375 471.347656 475.945312 470.507812 475.945312 469.472656 L 475.945312 454.488281 C 475.945312 453.453125 475.109375 452.617188 474.070312 452.617188 Z M 472.199219 467.601562 L 460.960938 467.601562 L 460.960938 456.363281 L 472.199219 456.363281 Z M 474.070312 486.332031 L 459.085938 486.332031 C 458.050781 486.332031 457.214844 487.167969 457.214844 488.203125 L 457.214844 503.1875 C 457.214844 504.222656 458.050781 505.0625 459.085938 505.0625 L 474.070312 505.0625 C 475.109375 505.0625 475.945312 504.222656 475.945312 503.1875 L 475.945312 488.203125 C 475.945312 487.167969 475.109375 486.332031 474.070312 486.332031 Z M 472.199219 501.316406 L 460.960938 501.316406 L 460.960938 490.078125 L 472.199219 490.078125 Z M 474.070312 520.046875 L 459.085938 520.046875 C 458.050781 520.046875 457.214844 520.882812 457.214844 521.917969 L 457.214844 536.902344 C 457.214844 537.9375 458.050781 538.777344 459.085938 538.777344 L 474.070312 538.777344 C 475.109375 538.777344 475.945312 537.9375 475.945312 536.902344 L 475.945312 521.917969 C 475.945312 520.882812 475.109375 520.046875 474.070312 520.046875 Z M 472.199219 535.03125 L 460.960938 535.03125 L 460.960938 523.792969 L 472.199219 523.792969 Z M 498.421875 423.269531 C 498.421875 416.726562 493.101562 411.410156 486.558594 411.410156 C 480.015625 411.410156 474.695312 416.726562 474.695312 423.269531 C 474.695312 429.8125 480.015625 435.132812 486.558594 435.132812 C 493.101562 435.132812 498.421875 429.8125 498.421875 423.269531 Z M 486.558594 431.386719 C 482.089844 431.386719 478.441406 427.742188 478.441406 423.269531 C 478.441406 418.800781 482.089844 415.15625 486.558594 415.15625 C 491.027344 415.15625 494.675781 418.800781 494.675781 423.269531 C 494.675781 427.742188 491.027344 431.386719 486.558594 431.386719 Z M 154.730469 464.527344 C 154.730469 465.566406 153.894531 466.402344 152.855469 466.402344 L 119.441406 466.402344 C 118.40625 466.402344 117.566406 465.566406 117.566406 464.527344 C 117.566406 463.492188 118.40625 462.65625 119.441406 462.65625 L 152.855469 462.65625 C 153.894531 462.65625 154.730469 463.492188 154.730469 464.527344 Z M 171.761719 464.527344 C 171.761719 465.566406 170.925781 466.402344 169.886719 466.402344 L 164.742188 466.402344 C 163.707031 466.402344 162.871094 465.566406 162.871094 464.527344 C 162.871094 463.492188 163.707031 462.65625 164.742188 462.65625 L 169.886719 462.65625 C 170.914062 462.65625 171.761719 463.492188 171.761719 464.527344 Z M 246.609375 464.527344 C 246.609375 465.566406 245.773438 466.402344 244.734375 466.402344 L 199.195312 466.402344 C 198.160156 466.402344 197.324219 465.566406 197.324219 464.527344 C 197.324219 463.492188 198.160156 462.65625 199.195312 462.65625 L 244.75 462.65625 C 245.773438 462.65625 246.609375 463.492188 246.609375 464.527344 Z M 341.847656 197.71875 L 322.390625 181.449219 C 321.59375 180.785156 320.417969 180.886719 319.757812 181.683594 C 319.097656 182.484375 319.195312 183.65625 319.996094 184.320312 L 339.136719 200.339844 C 337.328125 202.328125 335.777344 204.535156 334.53125 206.945312 L 333.257812 206.410156 C 332.292969 206.011719 331.207031 206.460938 330.808594 207.410156 C 330.410156 208.359375 330.859375 209.457031 331.808594 209.855469 L 333.019531 210.367188 C 331.996094 213.113281 331.371094 216.050781 331.183594 219.109375 L 322.390625 219.109375 C 321.355469 219.109375 320.519531 219.945312 320.519531 220.980469 C 320.519531 222.019531 321.355469 222.855469 322.390625 222.855469 L 331.183594 222.855469 C 331.332031 225.277344 331.757812 227.613281 332.433594 229.859375 L 320.65625 234.605469 C 319.695312 234.992188 319.234375 236.078125 319.621094 237.039062 C 319.917969 237.765625 320.617188 238.214844 321.355469 238.214844 C 321.59375 238.214844 321.832031 238.164062 322.054688 238.078125 L 333.742188 233.367188 C 334.691406 235.492188 335.851562 237.488281 337.238281 239.324219 L 327.523438 249.613281 C 326.8125 250.363281 326.851562 251.550781 327.597656 252.261719 C 327.960938 252.597656 328.421875 252.773438 328.886719 252.773438 C 329.386719 252.773438 329.882812 252.574219 330.246094 252.1875 L 339.6875 242.195312 C 341.695312 244.28125 344.007812 246.09375 346.542969 247.542969 L 343.007812 255.320312 C 342.582031 256.257812 342.996094 257.367188 343.945312 257.804688 C 344.195312 257.917969 344.457031 257.96875 344.71875 257.96875 C 345.429688 257.96875 346.117188 257.554688 346.429688 256.871094 L 349.902344 249.214844 C 352.984375 250.511719 356.332031 251.3125 359.839844 251.523438 L 359.839844 268.570312 C 359.839844 269.605469 360.675781 270.441406 361.714844 270.441406 C 362.75 270.441406 363.585938 269.605469 363.585938 268.570312 L 363.585938 251.523438 C 366.546875 251.351562 369.40625 250.738281 372.078125 249.777344 L 372.515625 250.800781 C 372.816406 251.511719 373.515625 251.9375 374.238281 251.9375 C 374.488281 251.9375 374.738281 251.886719 374.976562 251.789062 C 375.925781 251.375 376.359375 250.277344 375.960938 249.328125 L 375.511719 248.289062 C 377.648438 247.203125 379.632812 245.894531 381.429688 244.359375 L 385.777344 248.703125 C 386.136719 249.066406 386.625 249.253906 387.101562 249.253906 C 387.574219 249.253906 388.0625 249.066406 388.421875 248.703125 C 389.160156 247.964844 389.160156 246.78125 388.421875 246.054688 L 384.140625 241.773438 C 386.175781 239.574219 387.898438 237.078125 389.222656 234.355469 L 393.96875 236.953125 C 394.253906 237.101562 394.554688 237.175781 394.867188 237.175781 C 395.527344 237.175781 396.164062 236.828125 396.515625 236.203125 C 397.015625 235.292969 396.675781 234.15625 395.765625 233.65625 L 390.660156 230.859375 C 391.519531 228.324219 392.070312 225.652344 392.230469 222.867188 L 405.542969 222.867188 C 406.578125 222.867188 407.417969 222.03125 407.417969 220.996094 C 407.417969 219.957031 406.578125 219.121094 405.542969 219.121094 L 392.230469 219.121094 C 392.082031 216.75 391.671875 214.4375 391.007812 212.242188 L 398.699219 209.058594 C 399.660156 208.65625 400.109375 207.570312 399.710938 206.609375 C 399.3125 205.660156 398.226562 205.199219 397.265625 205.597656 L 389.710938 208.71875 C 388.335938 205.609375 386.476562 202.761719 384.203125 200.289062 L 388.597656 196.308594 C 389.359375 195.609375 389.421875 194.433594 388.734375 193.660156 C 388.035156 192.898438 386.851562 192.835938 386.089844 193.523438 L 381.492188 197.679688 C 379.683594 196.144531 377.695312 194.808594 375.5625 193.722656 L 380.507812 183.207031 C 380.945312 182.273438 380.542969 181.160156 379.609375 180.710938 C 378.671875 180.273438 377.558594 180.671875 377.109375 181.609375 L 372.128906 192.222656 C 369.429688 191.25 366.558594 190.636719 363.574219 190.449219 L 363.574219 161.617188 C 363.574219 160.582031 362.738281 159.746094 361.703125 159.746094 C 360.664062 159.746094 359.828125 160.582031 359.828125 161.617188 L 359.828125 190.449219 C 352.984375 190.863281 346.753906 193.535156 341.847656 197.71875 Z M 334.84375 220.980469 C 334.84375 206.183594 346.878906 194.132812 361.6875 194.132812 C 376.5 194.132812 388.535156 206.183594 388.535156 220.980469 C 388.535156 235.777344 376.5 247.828125 361.6875 247.828125 C 346.878906 247.828125 334.84375 235.777344 334.84375 220.980469 Z M 359.816406 155.675781 L 359.816406 148.144531 C 359.816406 147.109375 360.652344 146.273438 361.6875 146.273438 C 362.726562 146.273438 363.5625 147.109375 363.5625 148.144531 L 363.5625 155.675781 C 363.5625 156.710938 362.726562 157.546875 361.6875 157.546875 C 360.652344 157.546875 359.816406 156.710938 359.816406 155.675781 Z M 359.816406 283.605469 C 359.816406 282.566406 360.652344 281.730469 361.6875 281.730469 C 362.726562 281.730469 363.5625 282.566406 363.5625 283.605469 L 363.5625 298.875 C 363.5625 299.910156 362.726562 300.75 361.6875 300.75 C 360.652344 300.75 359.816406 299.910156 359.816406 298.875 Z M 359.816406 277.921875 L 359.816406 274.289062 C 359.816406 273.253906 360.652344 272.414062 361.6875 272.414062 C 362.726562 272.414062 363.5625 273.253906 363.5625 274.289062 L 363.5625 277.921875 C 363.5625 278.957031 362.726562 279.796875 361.6875 279.796875 C 360.652344 279.796875 359.816406 278.957031 359.816406 277.921875 Z M 434.949219 220.980469 C 434.949219 219.945312 435.785156 219.109375 436.824219 219.109375 L 446.199219 219.109375 C 447.238281 219.109375 448.074219 219.945312 448.074219 220.980469 C 448.074219 222.019531 447.238281 222.855469 446.199219 222.855469 L 436.824219 222.855469 C 435.785156 222.855469 434.949219 222.019531 434.949219 220.980469 Z M 412 219.109375 L 430.082031 219.109375 C 431.117188 219.109375 431.953125 219.945312 431.953125 220.980469 C 431.953125 222.019531 431.117188 222.855469 430.082031 222.855469 L 412 222.855469 C 410.960938 222.855469 410.125 222.019531 410.125 220.980469 C 410.125 219.945312 410.976562 219.109375 412 219.109375 Z M 279.273438 219.109375 L 291.863281 219.109375 C 292.898438 219.109375 293.734375 219.945312 293.734375 220.980469 C 293.734375 222.019531 292.898438 222.855469 291.863281 222.855469 L 279.273438 222.855469 C 278.238281 222.855469 277.402344 222.019531 277.402344 220.980469 C 277.402344 219.945312 278.238281 219.109375 279.273438 219.109375 Z M 298.042969 220.980469 C 298.042969 219.945312 298.878906 219.109375 299.914062 219.109375 L 315.886719 219.109375 C 316.921875 219.109375 317.757812 219.945312 317.757812 220.980469 C 317.757812 222.019531 316.921875 222.855469 315.886719 222.855469 L 299.914062 222.855469 C 298.878906 222.855469 298.042969 222.019531 298.042969 220.980469 Z M 418.59375 166.625 C 417.894531 165.863281 417.957031 164.679688 418.730469 163.980469 L 422 161.019531 C 422.761719 160.332031 423.949219 160.382812 424.648438 161.15625 C 425.347656 161.917969 425.285156 163.105469 424.511719 163.804688 L 421.238281 166.761719 C 420.878906 167.089844 420.425781 167.25 419.976562 167.25 C 419.464844 167.238281 418.953125 167.039062 418.59375 166.625 Z M 392.804688 189.953125 C 392.105469 189.191406 392.167969 188.003906 392.945312 187.304688 L 413.371094 168.8125 C 414.132812 168.125 415.320312 168.175781 416.019531 168.949219 C 416.71875 169.710938 416.65625 170.894531 415.882812 171.597656 L 395.453125 190.089844 C 395.089844 190.414062 394.640625 190.574219 394.191406 190.574219 C 393.679688 190.574219 393.179688 190.363281 392.804688 189.953125 Z M 419.628906 277.261719 C 420.363281 277.996094 420.363281 279.183594 419.628906 279.90625 C 419.265625 280.269531 418.78125 280.457031 418.304688 280.457031 C 417.832031 280.457031 417.34375 280.269531 416.980469 279.90625 L 411.824219 274.75 C 411.085938 274.015625 411.085938 272.828125 411.824219 272.101562 C 412.5625 271.367188 413.746094 271.367188 414.472656 272.101562 Z M 408.601562 266.234375 C 409.339844 266.972656 409.339844 268.15625 408.601562 268.882812 C 408.242188 269.242188 407.753906 269.429688 407.277344 269.429688 C 406.804688 269.429688 406.316406 269.242188 405.957031 268.882812 L 389.609375 252.535156 C 388.875 251.800781 388.875 250.613281 389.609375 249.890625 C 390.347656 249.152344 391.53125 249.152344 392.257812 249.890625 Z M 315.847656 267.394531 L 301.863281 282.207031 C 301.488281 282.59375 301.003906 282.792969 300.503906 282.792969 C 300.039062 282.792969 299.578125 282.617188 299.214844 282.28125 C 298.46875 281.570312 298.429688 280.382812 299.140625 279.632812 L 313.125 264.824219 C 313.839844 264.074219 315.023438 264.035156 315.773438 264.75 C 316.523438 265.460938 316.5625 266.648438 315.847656 267.394531 Z M 317.820312 259.855469 L 322.304688 255.109375 C 323.015625 254.359375 324.203125 254.320312 324.953125 255.035156 C 325.703125 255.746094 325.738281 256.933594 325.027344 257.679688 L 320.542969 262.425781 C 320.183594 262.8125 319.683594 263.011719 319.183594 263.011719 C 318.722656 263.011719 318.257812 262.839844 317.898438 262.5 C 317.148438 261.789062 317.109375 260.601562 317.820312 259.855469 Z M 299.304688 167.011719 C 298.515625 166.351562 298.40625 165.164062 299.066406 164.378906 C 299.726562 163.589844 300.914062 163.480469 301.703125 164.140625 L 304.972656 166.875 C 305.757812 167.539062 305.871094 168.722656 305.210938 169.511719 C 304.835938 169.949219 304.3125 170.183594 303.773438 170.183594 C 303.351562 170.183594 302.925781 170.046875 302.574219 169.746094 Z M 307.519531 173.894531 C 306.734375 173.230469 306.621094 172.046875 307.28125 171.257812 C 307.945312 170.460938 309.132812 170.359375 309.917969 171.019531 L 315.261719 175.492188 C 316.050781 176.152344 316.160156 177.339844 315.5 178.125 C 315.125 178.5625 314.601562 178.800781 314.0625 178.800781 C 313.640625 178.800781 313.214844 178.664062 312.863281 178.363281 Z M 343.71875 179.460938 C 344.65625 179.050781 345.769531 179.488281 346.179688 180.4375 L 349.625 188.351562 C 350.039062 189.300781 349.601562 190.402344 348.652344 190.8125 C 348.414062 190.914062 348.152344 190.976562 347.902344 190.976562 C 347.179688 190.976562 346.492188 190.550781 346.179688 189.851562 L 342.734375 181.933594 C 342.347656 180.984375 342.769531 179.875 343.71875 179.460938 Z M 341.410156 169.460938 L 343.832031 175.03125 C 344.246094 175.980469 343.808594 177.078125 342.859375 177.488281 C 342.609375 177.589844 342.359375 177.652344 342.109375 177.652344 C 341.386719 177.652344 340.699219 177.226562 340.386719 176.527344 L 337.964844 170.957031 C 337.550781 170.011719 337.988281 168.910156 338.9375 168.5 C 339.886719 168.074219 340.984375 168.511719 341.410156 169.460938 Z M 379.796875 175.867188 L 382.828125 169.410156 C 383.265625 168.472656 384.378906 168.074219 385.328125 168.511719 C 386.261719 168.949219 386.664062 170.074219 386.226562 171.007812 L 383.191406 177.464844 C 382.878906 178.140625 382.203125 178.539062 381.492188 178.539062 C 381.230469 178.539062 380.957031 178.476562 380.695312 178.363281 C 379.757812 177.914062 379.359375 176.804688 379.796875 175.867188 Z M 407.664062 205.324219 L 404.257812 206.734375 C 404.019531 206.835938 403.78125 206.871094 403.546875 206.871094 C 402.808594 206.871094 402.109375 206.433594 401.808594 205.710938 C 401.410156 204.75 401.871094 203.664062 402.820312 203.261719 L 406.230469 201.851562 C 407.191406 201.453125 408.277344 201.914062 408.675781 202.863281 C 409.078125 203.835938 408.613281 204.9375 407.664062 205.324219 Z M 410.300781 245.605469 C 410 245.605469 409.6875 245.53125 409.402344 245.382812 L 398.589844 239.476562 C 397.675781 238.976562 397.351562 237.839844 397.839844 236.925781 C 398.339844 236.015625 399.472656 235.691406 400.386719 236.179688 L 411.199219 242.085938 C 412.113281 242.585938 412.4375 243.71875 411.949219 244.632812 C 411.597656 245.257812 410.960938 245.605469 410.300781 245.605469 Z M 382.492188 264.6875 C 382.890625 265.636719 382.453125 266.734375 381.492188 267.144531 C 381.257812 267.246094 381.007812 267.296875 380.769531 267.296875 C 380.042969 267.296875 379.34375 266.871094 379.046875 266.148438 L 375.4375 257.632812 C 375.039062 256.683594 375.472656 255.582031 376.4375 255.171875 C 377.386719 254.773438 378.484375 255.207031 378.894531 256.171875 Z M 382.378906 269.21875 C 383.328125 268.820312 384.425781 269.257812 384.839844 270.21875 L 385.886719 272.703125 C 386.289062 273.652344 385.851562 274.75 384.890625 275.164062 C 384.652344 275.261719 384.402344 275.3125 384.164062 275.3125 C 383.441406 275.3125 382.742188 274.886719 382.441406 274.164062 L 381.394531 271.679688 C 380.980469 270.71875 381.429688 269.617188 382.378906 269.21875 Z M 337.1875 272.640625 C 336.253906 272.214844 335.828125 271.105469 336.253906 270.15625 L 340.625 260.527344 C 341.046875 259.589844 342.160156 259.167969 343.109375 259.589844 C 344.042969 260.015625 344.46875 261.128906 344.042969 262.078125 L 339.675781 271.703125 C 339.363281 272.390625 338.675781 272.804688 337.964844 272.804688 C 337.703125 272.804688 337.4375 272.753906 337.1875 272.640625 Z M 318.359375 237.539062 C 318.746094 238.5 318.285156 239.585938 317.324219 239.972656 L 314.351562 241.171875 C 314.125 241.261719 313.886719 241.3125 313.652344 241.3125 C 312.914062 241.3125 312.203125 240.875 311.914062 240.136719 C 311.527344 239.175781 311.992188 238.089844 312.953125 237.703125 L 315.925781 236.503906 C 316.886719 236.117188 317.972656 236.578125 318.359375 237.539062 Z M 318.984375 202.4375 C 318.683594 203.148438 317.984375 203.585938 317.261719 203.585938 C 317.023438 203.585938 316.773438 203.539062 316.535156 203.4375 L 312.941406 201.925781 C 311.992188 201.527344 311.542969 200.429688 311.941406 199.480469 C 312.339844 198.53125 313.4375 198.082031 314.386719 198.480469 L 317.984375 199.992188 C 318.933594 200.378906 319.382812 201.476562 318.984375 202.4375 Z M 322.964844 206.148438 C 322.019531 205.746094 321.566406 204.648438 321.96875 203.699219 C 322.367188 202.75 323.464844 202.300781 324.414062 202.699219 L 327.761719 204.113281 C 328.710938 204.511719 329.160156 205.609375 328.761719 206.558594 C 328.460938 207.269531 327.761719 207.707031 327.039062 207.707031 C 326.800781 207.707031 326.550781 207.65625 326.3125 207.558594 Z M 133.390625 241.433594 C 132.839844 239.460938 132.550781 237.414062 132.550781 235.339844 C 132.550781 222.941406 142.628906 212.863281 155.027344 212.863281 C 158.773438 212.863281 162.382812 213.789062 165.617188 215.523438 C 168.128906 203.863281 178.390625 195.382812 190.617188 195.382812 C 200.320312 195.382812 209.074219 200.816406 213.417969 209.355469 C 215.890625 208.371094 218.511719 207.871094 221.210938 207.871094 C 232.910156 207.871094 242.4375 217.398438 242.4375 229.097656 C 242.4375 234.65625 240.304688 239.910156 236.433594 243.894531 C 236.070312 244.269531 235.570312 244.46875 235.082031 244.46875 C 234.609375 244.46875 234.148438 244.296875 233.785156 243.945312 C 233.046875 243.222656 233.023438 242.035156 233.746094 241.296875 C 236.945312 238.015625 238.703125 233.679688 238.703125 229.097656 C 238.703125 219.457031 230.863281 211.617188 221.222656 211.617188 C 218.464844 211.617188 215.816406 212.242188 213.355469 213.488281 C 213.332031 213.503906 213.320312 213.503906 213.292969 213.515625 C 213.269531 213.527344 213.257812 213.539062 213.230469 213.550781 C 213.195312 213.566406 213.15625 213.578125 213.117188 213.589844 C 213.054688 213.613281 212.992188 213.625 212.929688 213.652344 C 212.867188 213.664062 212.820312 213.675781 212.757812 213.675781 C 212.695312 213.6875 212.632812 213.6875 212.570312 213.6875 C 212.507812 213.6875 212.445312 213.6875 212.394531 213.6875 C 212.332031 213.6875 212.269531 213.675781 212.21875 213.675781 C 212.15625 213.664062 212.105469 213.652344 212.042969 213.640625 C 211.980469 213.625 211.933594 213.601562 211.871094 213.589844 C 211.820312 213.566406 211.757812 213.539062 211.707031 213.515625 C 211.65625 213.488281 211.59375 213.464844 211.546875 213.425781 C 211.496094 213.402344 211.445312 213.363281 211.394531 213.328125 C 211.34375 213.289062 211.296875 213.253906 211.257812 213.214844 C 211.207031 213.175781 211.171875 213.128906 211.132812 213.078125 C 211.097656 213.027344 211.058594 212.988281 211.019531 212.941406 C 210.984375 212.890625 210.945312 212.828125 210.921875 212.777344 C 210.894531 212.742188 210.871094 212.714844 210.859375 212.679688 C 210.847656 212.652344 210.847656 212.640625 210.832031 212.617188 C 210.820312 212.589844 210.808594 212.578125 210.796875 212.554688 C 207.386719 204.410156 199.46875 199.140625 190.640625 199.140625 C 179.367188 199.140625 170.027344 207.582031 168.902344 218.785156 C 168.902344 218.796875 168.890625 218.808594 168.890625 218.835938 C 168.863281 219.035156 168.816406 219.234375 168.714844 219.421875 C 168.703125 219.445312 168.691406 219.472656 168.664062 219.496094 C 168.628906 219.558594 168.601562 219.621094 168.550781 219.683594 C 168.476562 219.796875 168.390625 219.894531 168.289062 219.984375 C 168.289062 219.984375 168.277344 219.996094 168.277344 219.996094 C 168.117188 220.132812 167.929688 220.246094 167.742188 220.332031 C 167.726562 220.332031 167.714844 220.34375 167.714844 220.34375 C 167.515625 220.417969 167.292969 220.457031 167.078125 220.46875 C 167.066406 220.46875 167.054688 220.46875 167.042969 220.46875 C 167.027344 220.46875 167.015625 220.46875 167.003906 220.46875 C 166.980469 220.46875 166.964844 220.46875 166.941406 220.46875 C 166.902344 220.46875 166.878906 220.46875 166.84375 220.46875 C 166.804688 220.46875 166.78125 220.457031 166.742188 220.445312 C 166.667969 220.433594 166.605469 220.417969 166.53125 220.40625 C 166.46875 220.394531 166.417969 220.371094 166.367188 220.355469 C 166.304688 220.332031 166.253906 220.308594 166.191406 220.28125 C 166.128906 220.257812 166.066406 220.21875 166.019531 220.183594 C 165.992188 220.15625 165.957031 220.15625 165.929688 220.132812 C 162.746094 217.847656 158.976562 216.636719 155.027344 216.636719 C 144.703125 216.636719 136.296875 225.039062 136.296875 235.367188 C 136.296875 237.101562 136.535156 238.8125 136.984375 240.460938 C 137.261719 241.460938 136.6875 242.496094 135.6875 242.773438 C 135.523438 242.820312 135.351562 242.847656 135.1875 242.847656 C 134.363281 242.808594 133.613281 242.273438 133.390625 241.433594 Z M 317.308594 116.777344 C 317.308594 115.742188 318.148438 114.90625 319.183594 114.90625 L 337.964844 114.90625 C 339 114.90625 339.835938 115.742188 339.835938 116.777344 C 339.835938 117.8125 339 118.652344 337.964844 118.652344 L 319.183594 118.652344 C 318.160156 118.652344 317.308594 117.8125 317.308594 116.777344 Z M 216.226562 148.144531 C 216.226562 147.109375 217.066406 146.273438 218.101562 146.273438 L 260.542969 146.273438 C 261.582031 146.273438 262.417969 147.109375 262.417969 148.144531 C 262.417969 149.179688 261.582031 150.019531 260.542969 150.019531 L 218.101562 150.019531 C 217.066406 150.019531 216.226562 149.179688 216.226562 148.144531 Z M 273.628906 139.753906 C 273.628906 138.71875 274.46875 137.878906 275.503906 137.878906 L 288.015625 137.878906 C 289.050781 137.878906 289.886719 138.71875 289.886719 139.753906 C 289.886719 140.789062 289.050781 141.625 288.015625 141.625 L 275.503906 141.625 C 274.46875 141.625 273.628906 140.789062 273.628906 139.753906 Z M 456.289062 240.773438 C 456.289062 239.738281 457.128906 238.902344 458.164062 238.902344 L 481.976562 238.902344 C 483.011719 238.902344 483.847656 239.738281 483.847656 240.773438 C 483.847656 241.808594 483.011719 242.648438 481.976562 242.648438 L 458.164062 242.648438 C 457.140625 242.648438 456.289062 241.808594 456.289062 240.773438 Z M 468.203125 332.242188 C 468.203125 331.203125 469.039062 330.367188 470.074219 330.367188 L 490.59375 330.367188 C 491.628906 330.367188 492.464844 331.203125 492.464844 332.242188 C 492.464844 333.277344 491.628906 334.113281 490.59375 334.113281 L 470.074219 334.113281 C 469.039062 334.113281 468.203125 333.277344 468.203125 332.242188 Z M 368.707031 320.566406 L 316.625 320.566406 C 315.585938 320.566406 314.75 319.730469 314.75 318.691406 C 314.75 317.65625 315.585938 316.820312 316.625 316.820312 L 368.707031 316.820312 C 369.742188 316.820312 370.578125 317.65625 370.578125 318.691406 C 370.578125 319.730469 369.742188 320.566406 368.707031 320.566406 Z M 388.949219 332.242188 C 388.949219 333.277344 388.113281 334.113281 387.074219 334.113281 L 361.6875 334.113281 C 360.652344 334.113281 359.816406 333.277344 359.816406 332.242188 C 359.816406 331.203125 360.652344 330.367188 361.6875 330.367188 L 387.074219 330.367188 C 388.113281 330.367188 388.949219 331.203125 388.949219 332.242188 Z M 186.847656 280.457031 L 167.015625 280.457031 C 165.980469 280.457031 165.144531 279.621094 165.144531 278.585938 C 165.144531 277.546875 165.980469 276.710938 167.015625 276.710938 L 186.847656 276.710938 C 187.882812 276.710938 188.71875 277.546875 188.71875 278.585938 C 188.71875 279.621094 187.882812 280.457031 186.847656 280.457031 Z M 246.609375 291.246094 C 246.609375 292.28125 245.773438 293.117188 244.734375 293.117188 L 189.992188 293.117188 C 188.957031 293.117188 188.121094 292.28125 188.121094 291.246094 C 188.121094 290.210938 188.957031 289.371094 189.992188 289.371094 L 244.734375 289.371094 C 245.773438 289.371094 246.609375 290.210938 246.609375 291.246094 Z M 124.648438 327.121094 C 124.648438 326.085938 125.484375 325.25 126.519531 325.25 L 146.914062 325.25 C 147.949219 325.25 148.785156 326.085938 148.785156 327.121094 C 148.785156 328.15625 147.949219 328.996094 146.914062 328.996094 L 126.519531 328.996094 C 125.484375 328.996094 124.648438 328.15625 124.648438 327.121094 Z M 124.648438 327.121094 " fill-opacity="1" fill-rule="nonzero"/></g><g fill="currentColor" fill-opacity="1"><g transform="translate(709.76294, 251.021486)"><g><path d="M 37.695312 -128.28125 C 35.316406 -128.28125 21.777344 -128.28125 15.1875 -128.097656 L 3.660156 -128.097656 L 3.660156 -127.363281 L 9.332031 -127.363281 L 9.332031 -0.730469 L 3.660156 -0.730469 L 3.660156 0 L 20.496094 0 L 20.496094 -0.730469 L 15.1875 -0.730469 L 15.1875 -51.238281 C 20.496094 -51.421875 36.417969 -51.054688 39.34375 -51.238281 C 53.433594 -51.96875 66.976562 -65.878906 66.976562 -88.9375 C 66.976562 -112.359375 54.167969 -128.28125 37.695312 -128.28125 Z M 36.964844 -52.152344 C 34.585938 -52.152344 19.582031 -51.789062 15.1875 -53.070312 L 15.1875 -126.816406 C 17.75 -127.363281 22.875 -127.546875 36.964844 -127.546875 C 51.421875 -127.546875 60.9375 -114.1875 60.9375 -88.9375 C 60.9375 -64.046875 51.421875 -52.152344 36.964844 -52.152344 Z M 36.964844 -52.152344 "/></g></g></g><g fill="currentColor" fill-opacity="1"><g transform="translate(786.251404, 251.021486)"><g><path d="M 86.375 -0.730469 L 80.882812 -0.730469 L 46.480469 -128.097656 L 11.527344 -0.914062 L 3.660156 -0.914062 L 3.660156 -0.183594 L 20.3125 -0.183594 L 20.3125 -0.914062 L 12.261719 -0.914062 L 24.15625 -43.734375 L 63.867188 -43.734375 L 75.210938 -0.730469 L 69.722656 -0.730469 L 69.722656 0 L 86.375 0 Z M 24.339844 -44.46875 L 44.46875 -117.300781 L 63.683594 -44.46875 Z M 24.339844 -44.46875 "/></g></g></g><g fill="currentColor" fill-opacity="1"><g transform="translate(882.136388, 251.021486)"><g><path d="M 77.039062 -127.363281 L 77.039062 -128.097656 L 60.207031 -128.097656 L 60.207031 -127.363281 L 67.707031 -127.363281 L 15.554688 -67.34375 L 15.1875 -67.34375 L 15.1875 -128.097656 L 3.660156 -128.097656 L 3.660156 -127.363281 L 8.964844 -127.363281 L 8.964844 -0.730469 L 3.660156 -0.730469 L 3.660156 0 L 17.382812 0 L 17.382812 -0.730469 L 15.1875 -0.730469 L 15.1875 -66.609375 L 15.554688 -66.609375 L 64.964844 -0.730469 L 60.207031 -0.730469 L 60.207031 0 L 77.039062 0 L 77.039062 -0.730469 L 71.183594 -0.730469 L 19.945312 -70.820312 L 68.988281 -127.363281 Z M 77.039062 -127.363281 "/></g></g></g><g fill="currentColor" fill-opacity="1"><g transform="translate(968.689087, 251.021486)"><g><path d="M 86.375 -0.730469 L 80.882812 -0.730469 L 46.480469 -128.097656 L 11.527344 -0.914062 L 3.660156 -0.914062 L 3.660156 -0.183594 L 20.3125 -0.183594 L 20.3125 -0.914062 L 12.261719 -0.914062 L 24.15625 -43.734375 L 63.867188 -43.734375 L 75.210938 -0.730469 L 69.722656 -0.730469 L 69.722656 0 L 86.375 0 Z M 24.339844 -44.46875 L 44.46875 -117.300781 L 63.683594 -44.46875 Z M 24.339844 -44.46875 "/></g></g></g><g fill="currentColor" fill-opacity="1"><g transform="translate(1064.574082, 251.021486)"><g><path d="M 68.625 -18.664062 C 68.625 -8.785156 60.386719 -0.730469 51.238281 -0.730469 L 15.1875 -0.730469 L 15.1875 -127.363281 L 20.496094 -127.363281 L 20.496094 -128.097656 L 3.660156 -128.097656 L 3.660156 -127.363281 L 8.964844 -127.363281 L 8.964844 -0.730469 L 3.660156 -0.730469 L 3.660156 0 L 69.902344 0 L 69.902344 -18.664062 Z M 68.625 -18.664062 "/></g></g></g><g fill="currentColor" fill-opacity="1"><g transform="translate(1143.990331, 251.021486)"><g><path d="M 71.367188 -128.828125 L 71.367188 -128.097656 L 79.238281 -128.097656 L 79.238281 -13.542969 L 17.933594 -128.097656 L 3.660156 -128.097656 L 3.660156 -127.363281 L 11.710938 -127.363281 L 11.710938 -0.730469 L 3.660156 -0.730469 L 3.660156 0 L 20.496094 0 L 20.496094 -0.730469 L 12.808594 -0.730469 L 12.808594 -124.253906 L 79.238281 0 L 80.335938 0 L 80.335938 -128.097656 L 88.203125 -128.097656 L 88.203125 -128.828125 Z M 71.367188 -128.828125 "/></g></g></g><g fill="currentColor" fill-opacity="1"><g transform="translate(1241.705167, 251.021486)"><g><path d="M 20.496094 -127.363281 L 20.496094 -128.097656 L 3.660156 -128.097656 L 3.660156 -127.363281 L 8.964844 -127.363281 L 8.964844 -0.730469 L 3.660156 -0.730469 L 3.660156 0 L 20.496094 0 L 20.496094 -0.730469 L 15.1875 -0.730469 L 15.1875 -127.363281 Z M 20.496094 -127.363281 "/></g></g></g><g fill="currentColor" fill-opacity="1"><g transform="translate(1271.715158, 251.021486)"><g><path d="M 71.367188 -128.828125 L 71.367188 -128.097656 L 79.054688 -128.097656 L 79.054688 -23.789062 C 79.054688 -11.710938 71.183594 -0.730469 43.734375 -0.730469 C 32.9375 -0.730469 15.1875 -7.6875 15.1875 -25.4375 L 15.1875 -127.363281 L 20.679688 -127.363281 L 20.679688 -128.097656 L 3.660156 -128.097656 L 3.660156 -127.363281 L 9.148438 -127.363281 L 9.148438 -29.277344 C 9.148438 -10.429688 21.960938 0.367188 43.734375 0.367188 C 45.933594 0.367188 47.945312 0.367188 49.957031 0.183594 C 42.089844 1.828125 32.574219 9.515625 32.574219 18.664062 C 32.574219 33.671875 45.933594 39.34375 58.558594 34.21875 L 58.558594 32.023438 C 49.589844 36.050781 33.671875 35.136719 33.671875 18.664062 C 33.671875 9.148438 45.015625 1.464844 53.617188 0 L 52.152344 0 C 77.40625 -2.378906 80.519531 -15.554688 80.519531 -26.167969 L 80.519531 -128.097656 L 88.203125 -128.097656 L 88.203125 -128.828125 Z M 71.367188 -128.828125 "/></g></g></g><g fill="currentColor" fill-opacity="1"><g transform="translate(709.76294, 441.230162)"><g><path d="M 77.039062 -127.363281 L 77.039062 -128.097656 L 60.207031 -128.097656 L 60.207031 -127.363281 L 67.707031 -127.363281 L 15.554688 -67.34375 L 15.1875 -67.34375 L 15.1875 -128.097656 L 3.660156 -128.097656 L 3.660156 -127.363281 L 8.964844 -127.363281 L 8.964844 -0.730469 L 3.660156 -0.730469 L 3.660156 0 L 17.382812 0 L 17.382812 -0.730469 L 15.1875 -0.730469 L 15.1875 -66.609375 L 15.554688 -66.609375 L 64.964844 -0.730469 L 60.207031 -0.730469 L 60.207031 0 L 77.039062 0 L 77.039062 -0.730469 L 71.183594 -0.730469 L 19.945312 -70.820312 L 68.988281 -127.363281 Z M 77.039062 -127.363281 "/></g></g></g><g fill="currentColor" fill-opacity="1"><g transform="translate(796.315639, 441.230162)"><g><path d="M 86.375 -0.730469 L 80.882812 -0.730469 L 46.480469 -128.097656 L 11.527344 -0.914062 L 3.660156 -0.914062 L 3.660156 -0.183594 L 20.3125 -0.183594 L 20.3125 -0.914062 L 12.261719 -0.914062 L 24.15625 -43.734375 L 63.867188 -43.734375 L 75.210938 -0.730469 L 69.722656 -0.730469 L 69.722656 0 L 86.375 0 Z M 24.339844 -44.46875 L 44.46875 -117.300781 L 63.683594 -44.46875 Z M 24.339844 -44.46875 "/></g></g></g><g fill="currentColor" fill-opacity="1"><g transform="translate(892.200623, 441.230162)"><g><path d="M 20.496094 -127.363281 L 20.496094 -128.097656 L 3.660156 -128.097656 L 3.660156 -127.363281 L 8.964844 -127.363281 L 8.964844 -0.730469 L 3.660156 -0.730469 L 3.660156 0 L 20.496094 0 L 20.496094 -0.730469 L 15.1875 -0.730469 L 15.1875 -127.363281 Z M 20.496094 -127.363281 "/></g></g></g><g fill="currentColor" fill-opacity="1"><g transform="translate(922.210614, 441.230162)"><g><path d="M 86.558594 -0.730469 L 86.558594 -127.363281 L 90.398438 -127.363281 L 90.398438 -128.097656 L 86.558594 -128.097656 C 84.726562 -128.097656 82.714844 -128.097656 81.066406 -128.097656 C 80.699219 -128.097656 80.699219 -128.097656 80.699219 -128.097656 L 80.335938 -128.097656 L 47.394531 -10.796875 L 16.652344 -127.363281 L 17.019531 -127.363281 L 17.019531 -128.097656 L 5.488281 -128.097656 L 5.488281 -127.363281 L 10.980469 -127.363281 L 10.980469 -0.730469 L 3.660156 -0.730469 L 3.660156 0 L 20.3125 0 L 20.3125 -0.730469 L 12.078125 -0.730469 L 12.078125 -123.339844 L 45.382812 0 L 80.335938 -125.535156 L 80.335938 -0.730469 L 75.027344 -0.730469 L 75.027344 0 L 91.679688 0 L 91.679688 -0.730469 Z M 86.558594 -0.730469 "/></g></g></g><g fill="currentColor" fill-opacity="1"><g transform="translate(1023.402185, 441.230162)"><g><path d="M 44.101562 1.648438 C 72.28125 1.648438 84.179688 -26.898438 84.179688 -62.402344 C 84.179688 -99.183594 73.382812 -129.742188 44.101562 -129.742188 C 14.640625 -129.742188 3.660156 -100.464844 3.660156 -62.402344 C 3.660156 -26.71875 14.824219 1.648438 44.101562 1.648438 Z M 44.101562 0.914062 C 16.46875 0.914062 10.246094 -28.730469 10.246094 -62.402344 C 10.246094 -96.988281 16.105469 -129.011719 44.101562 -129.011719 C 71.550781 -129.011719 77.589844 -97.535156 77.589844 -62.402344 C 77.589844 -29.460938 71.917969 0.914062 44.101562 0.914062 Z M 44.101562 0.914062 "/></g></g></g><g fill="currentColor" fill-opacity="1"><g transform="translate(709.76294, 631.438838)"><g><path d="M 49.042969 -69.539062 C 61.488281 -72.101562 72.648438 -83.261719 72.648438 -97.535156 C 72.648438 -112.359375 59.839844 -127.914062 43.371094 -127.914062 C 40.257812 -127.914062 12.992188 -128.097656 10.613281 -127.730469 L 3.660156 -127.730469 L 3.660156 -127 L 9.332031 -127 L 9.332031 -0.730469 L 3.660156 -0.730469 L 3.660156 0 L 47.210938 0 C 61.304688 0 82.164062 -11.527344 82.164062 -34.035156 C 82.164062 -52.703125 64.78125 -67.523438 49.042969 -69.539062 Z M 42.636719 -127.179688 C 57.09375 -127.179688 66.609375 -114.1875 66.609375 -97.535156 C 66.609375 -79.96875 57.09375 -69.902344 42.636719 -69.902344 C 41.90625 -69.902344 38.796875 -69.902344 34.769531 -69.722656 L 24.15625 -69.722656 C 20.679688 -69.902344 17.566406 -69.902344 15.1875 -70.269531 L 15.1875 -126.082031 C 19.214844 -126.632812 28.914062 -127.179688 42.636719 -127.179688 Z M 44.832031 -0.914062 C 42.636719 -0.914062 21.960938 -0.550781 15.1875 -2.011719 L 15.1875 -68.625 C 17.203125 -68.804688 22.324219 -68.988281 30.011719 -68.988281 L 45.015625 -68.988281 C 59.472656 -68.804688 76.125 -55.996094 76.125 -34.035156 C 76.125 -11.527344 61.304688 -0.914062 44.832031 -0.914062 Z M 44.832031 -0.914062 "/></g></g></g><g fill="currentColor" fill-opacity="1"><g transform="translate(801.439247, 631.438838)"><g><path d="M 69.902344 -128.097656 L 3.660156 -128.097656 L 3.660156 -127.363281 L 8.964844 -127.363281 L 8.964844 -0.730469 L 3.660156 -0.730469 L 3.660156 0 L 69.902344 0 L 69.902344 -18.664062 L 68.625 -18.664062 C 68.625 -3.292969 57.644531 -1.097656 48.675781 -0.730469 L 15.1875 -0.730469 L 15.1875 -65.511719 L 32.574219 -65.511719 C 46.664062 -65.511719 49.957031 -59.289062 49.957031 -47.578125 L 51.238281 -47.578125 L 51.238281 -84.179688 L 49.957031 -84.179688 C 49.957031 -72.464844 46.664062 -66.246094 32.574219 -66.246094 L 15.1875 -66.246094 L 15.1875 -127.363281 L 48.675781 -127.363281 C 57.644531 -127 68.625 -124.800781 68.625 -109.429688 L 69.902344 -109.429688 L 69.902344 -127.363281 C 69.902344 -127.363281 69.902344 -127.546875 69.902344 -127.730469 Z M 69.902344 -128.097656 "/></g></g></g><g fill="currentColor" fill-opacity="1"><g transform="translate(880.855485, 631.438838)"><g><path d="M 71.367188 -128.828125 L 71.367188 -128.097656 L 79.238281 -128.097656 L 79.238281 -13.542969 L 17.933594 -128.097656 L 3.660156 -128.097656 L 3.660156 -127.363281 L 11.710938 -127.363281 L 11.710938 -0.730469 L 3.660156 -0.730469 L 3.660156 0 L 20.496094 0 L 20.496094 -0.730469 L 12.808594 -0.730469 L 12.808594 -124.253906 L 79.238281 0 L 80.335938 0 L 80.335938 -128.097656 L 88.203125 -128.097656 L 88.203125 -128.828125 Z M 71.367188 -128.828125 "/></g></g></g><g fill="currentColor" fill-opacity="1"><g transform="translate(978.570343, 631.438838)"><g><path d="M 49.042969 -128.28125 C 36.050781 -128.644531 16.652344 -128.28125 3.660156 -128.097656 L 3.660156 -127.363281 L 8.964844 -127.363281 L 8.964844 -0.550781 C 6.40625 -0.550781 4.574219 -0.730469 3.660156 -0.730469 L 3.660156 0 C 7.867188 0.367188 35.683594 0.550781 49.042969 0.183594 C 77.222656 -0.550781 89.117188 -27.449219 89.117188 -62.402344 C 89.117188 -97.902344 78.320312 -127.363281 49.042969 -128.28125 Z M 49.042969 -0.550781 C 40.441406 -0.367188 25.621094 -0.367188 15.1875 -0.367188 L 15.1875 -127.546875 C 26.535156 -127.730469 39.527344 -127.730469 49.042969 -127.546875 C 76.492188 -127.546875 83.078125 -87.105469 83.078125 -62.402344 C 83.078125 -39.160156 76.859375 -0.550781 49.042969 -0.550781 Z M 49.042969 -0.550781 "/></g></g></g><g fill="currentColor" fill-opacity="1"><g transform="translate(1077.017141, 631.438838)"><g><path d="M 70.085938 -1.28125 C 68.257812 -1.28125 68.257812 -4.207031 68.257812 -5.671875 L 68.257812 -30.011719 C 68.257812 -46.664062 55.8125 -60.9375 43.1875 -63.683594 C 55.8125 -66.0625 66.976562 -77.40625 66.976562 -94.972656 C 66.976562 -112.359375 54.167969 -128.28125 37.695312 -128.28125 C 35.316406 -128.28125 21.777344 -128.28125 15.1875 -128.097656 L 3.660156 -128.097656 L 3.660156 -127.363281 L 9.332031 -127.363281 L 9.332031 -0.730469 L 3.660156 -0.730469 L 3.660156 0 L 20.496094 0 L 20.496094 -0.730469 L 15.1875 -0.730469 L 15.1875 -63.132812 C 19.945312 -63.316406 33.488281 -62.949219 38.246094 -63.132812 C 51.054688 -62.402344 62.21875 -53.25 62.21875 -30.011719 L 62.21875 -7.320312 C 62.21875 -4.574219 63.132812 0 68.257812 0 C 72.101562 0 72.101562 -4.390625 72.101562 -5.488281 C 72.101562 -3.660156 71.183594 -1.28125 70.085938 -1.28125 Z M 15.1875 -64.964844 L 15.1875 -126.816406 C 17.75 -127.363281 22.875 -127.546875 36.964844 -127.546875 C 51.421875 -127.546875 60.9375 -114.1875 60.9375 -94.972656 C 60.9375 -73.746094 51.421875 -64.046875 36.964844 -64.046875 C 34.585938 -64.046875 19.582031 -63.683594 15.1875 -64.964844 Z M 15.1875 -64.964844 "/></g></g></g><g fill="currentColor" fill-opacity="1"><g transform="translate(1158.629235, 631.438838)"><g><path d="M 71.367188 -128.828125 L 71.367188 -128.097656 L 79.054688 -128.097656 L 79.054688 -23.789062 C 79.054688 -11.710938 71.183594 -0.730469 43.734375 -0.730469 C 32.9375 -0.730469 15.1875 -7.6875 15.1875 -25.4375 L 15.1875 -127.363281 L 20.679688 -127.363281 L 20.679688 -128.097656 L 3.660156 -128.097656 L 3.660156 -127.363281 L 9.148438 -127.363281 L 9.148438 -29.277344 C 9.148438 -10.429688 21.960938 0.367188 43.734375 0.367188 C 76.675781 0.367188 80.519531 -14.457031 80.519531 -26.167969 L 80.519531 -128.097656 L 88.203125 -128.097656 L 88.203125 -128.828125 Z M 71.367188 -128.828125 "/></g></g></g><g fill="currentColor" fill-opacity="1"><g transform="translate(1256.344071, 631.438838)"><g><path d="M 44.101562 1.648438 C 72.28125 1.648438 84.179688 -26.898438 84.179688 -62.402344 C 84.179688 -99.183594 73.382812 -129.742188 44.101562 -129.742188 C 14.640625 -129.742188 3.660156 -100.464844 3.660156 -62.402344 C 3.660156 -26.71875 14.824219 1.648438 44.101562 1.648438 Z M 44.101562 0.914062 C 16.46875 0.914062 10.246094 -28.730469 10.246094 -62.402344 C 10.246094 -96.988281 16.105469 -129.011719 44.101562 -129.011719 C 71.550781 -129.011719 77.589844 -97.535156 77.589844 -62.402344 C 77.589844 -29.460938 71.917969 0.914062 44.101562 0.914062 Z M 44.101562 0.914062 "/></g></g></g><g fill="currentColor" fill-opacity="1"><g transform="translate(1350.033242, 631.438838)"><g><path d="M 86.558594 -0.730469 L 86.558594 -127.363281 L 90.398438 -127.363281 L 90.398438 -128.097656 L 86.558594 -128.097656 C 84.726562 -128.097656 82.714844 -128.097656 81.066406 -128.097656 C 80.699219 -128.097656 80.699219 -128.097656 80.699219 -128.097656 L 80.335938 -128.097656 L 47.394531 -10.796875 L 16.652344 -127.363281 L 17.019531 -127.363281 L 17.019531 -128.097656 L 5.488281 -128.097656 L 5.488281 -127.363281 L 10.980469 -127.363281 L 10.980469 -0.730469 L 3.660156 -0.730469 L 3.660156 0 L 20.3125 0 L 20.3125 -0.730469 L 12.078125 -0.730469 L 12.078125 -123.339844 L 45.382812 0 L 80.335938 -125.535156 L 80.335938 -0.730469 L 75.027344 -0.730469 L 75.027344 0 L 91.679688 0 L 91.679688 -0.730469 Z M 86.558594 -0.730469 "/></g></g></g><g fill="currentColor" fill-opacity="1"><g transform="translate(1451.224814, 631.438838)"><g><path d="M 69.902344 -128.097656 L 3.660156 -128.097656 L 3.660156 -127.363281 L 8.964844 -127.363281 L 8.964844 -0.730469 L 3.660156 -0.730469 L 3.660156 0 L 69.902344 0 L 69.902344 -18.664062 L 68.625 -18.664062 C 68.625 -3.292969 57.644531 -1.097656 48.675781 -0.730469 L 15.1875 -0.730469 L 15.1875 -65.511719 L 32.574219 -65.511719 C 46.664062 -65.511719 49.957031 -59.289062 49.957031 -47.578125 L 51.238281 -47.578125 L 51.238281 -84.179688 L 49.957031 -84.179688 C 49.957031 -72.464844 46.664062 -66.246094 32.574219 -66.246094 L 15.1875 -66.246094 L 15.1875 -127.363281 L 48.675781 -127.363281 C 57.644531 -127 68.625 -124.800781 68.625 -109.429688 L 69.902344 -109.429688 L 69.902344 -127.363281 C 69.902344 -127.363281 69.902344 -127.546875 69.902344 -127.730469 Z M 69.902344 -128.097656 "/></g></g></g><g fill="currentColor" fill-opacity="1"><g transform="translate(1530.641019, 631.438838)"><g><path d="M 71.367188 -128.828125 L 71.367188 -128.097656 L 79.238281 -128.097656 L 79.238281 -13.542969 L 17.933594 -128.097656 L 3.660156 -128.097656 L 3.660156 -127.363281 L 11.710938 -127.363281 L 11.710938 -0.730469 L 3.660156 -0.730469 L 3.660156 0 L 20.496094 0 L 20.496094 -0.730469 L 12.808594 -0.730469 L 12.808594 -124.253906 L 79.238281 0 L 80.335938 0 L 80.335938 -128.097656 L 88.203125 -128.097656 L 88.203125 -128.828125 Z M 71.367188 -128.828125 "/></g></g></g><g fill="currentColor" fill-opacity="1"><g transform="translate(1628.355854, 631.438838)"><g><path d="M 36.78125 -139.078125 C 41.90625 -139.078125 45.933594 -143.285156 45.933594 -148.226562 C 45.933594 -153.351562 41.90625 -157.375 36.78125 -157.375 C 31.65625 -157.375 27.632812 -153.351562 27.632812 -148.226562 C 27.632812 -143.285156 31.65625 -139.078125 36.78125 -139.078125 Z M 69.902344 -128.097656 L 3.660156 -128.097656 L 3.660156 -127.363281 L 8.964844 -127.363281 L 8.964844 -0.730469 L 3.660156 -0.730469 L 3.660156 0 L 69.902344 0 L 69.902344 -18.664062 L 68.625 -18.664062 C 68.625 -3.292969 57.644531 -1.097656 48.675781 -0.730469 L 15.1875 -0.730469 L 15.1875 -65.511719 L 32.574219 -65.511719 C 46.664062 -65.511719 49.957031 -59.289062 49.957031 -47.578125 L 51.238281 -47.578125 L 51.238281 -84.179688 L 49.957031 -84.179688 C 49.957031 -72.464844 46.664062 -66.246094 32.574219 -66.246094 L 15.1875 -66.246094 L 15.1875 -127.363281 L 48.675781 -127.363281 C 57.644531 -127 68.625 -124.800781 68.625 -109.429688 L 69.902344 -109.429688 L 69.902344 -127.363281 C 69.902344 -127.363281 69.902344 -127.546875 69.902344 -127.730469 Z M 69.902344 -128.097656 "/></g></g></g></svg>