<svg xmlns="http://www.w3.org/2000/svg" xmlns:xlink="http://www.w3.org/1999/xlink" width="500" zoomAndPan="magnify" viewBox="0 0 375 374.999991" height="500" preserveAspectRatio="xMidYMid meet" version="1.0"><path fill="#ffffff" d="M 187.890625 13.179688 C 153.144531 13.179688 120.460938 26.699219 95.851562 51.234375 C 71.253906 75.773438 57.652344 108.417969 57.558594 143.15625 L 57.558594 360.5625 C 57.558594 361.210938 58.082031 361.734375 58.726562 361.734375 L 317.050781 361.734375 C 317.699219 361.734375 318.222656 361.210938 318.222656 360.5625 L 318.222656 143.15625 C 318.128906 108.417969 304.527344 75.78125 279.925781 51.242188 C 255.320312 26.699219 222.636719 13.179688 187.890625 13.179688 Z M 97.507812 52.898438 C 121.671875 28.796875 153.769531 15.523438 187.890625 15.523438 C 222.011719 15.523438 254.109375 28.796875 278.273438 52.898438 C 296.613281 71.191406 308.71875 94.074219 313.53125 118.953125 C 312.035156 118.484375 310.472656 118.234375 308.859375 118.234375 C 300.25 118.234375 293.25 125.238281 293.25 133.84375 C 293.25 134.273438 293.273438 134.695312 293.304688 135.117188 C 291.453125 134.289062 289.457031 133.84375 287.394531 133.84375 C 279.433594 133.84375 272.957031 140.324219 272.957031 148.28125 C 272.957031 149.789062 273.191406 151.289062 273.652344 152.738281 C 273.808594 153.238281 274.269531 153.550781 274.769531 153.550781 C 274.886719 153.550781 275.003906 153.535156 275.128906 153.496094 C 275.742188 153.300781 276.078125 152.636719 275.882812 152.019531 C 275.496094 150.804688 275.300781 149.546875 275.300781 148.28125 C 275.300781 141.609375 280.722656 136.1875 287.394531 136.1875 C 289.832031 136.1875 292.171875 136.902344 294.179688 138.261719 C 294.257812 138.316406 294.34375 138.355469 294.433594 138.386719 C 294.449219 138.394531 294.472656 138.394531 294.488281 138.402344 C 294.597656 138.433594 294.714844 138.457031 294.832031 138.457031 C 294.839844 138.457031 294.847656 138.457031 294.855469 138.457031 C 294.933594 138.457031 295.011719 138.449219 295.082031 138.425781 C 295.089844 138.425781 295.097656 138.425781 295.105469 138.425781 C 295.128906 138.417969 295.152344 138.410156 295.175781 138.402344 C 295.214844 138.386719 295.253906 138.378906 295.292969 138.363281 C 295.324219 138.347656 295.355469 138.332031 295.386719 138.316406 C 295.417969 138.300781 295.457031 138.277344 295.488281 138.253906 C 295.519531 138.230469 295.550781 138.207031 295.582031 138.183594 C 295.613281 138.160156 295.636719 138.136719 295.667969 138.105469 C 295.699219 138.074219 295.722656 138.042969 295.746094 138.011719 C 295.761719 137.988281 295.777344 137.972656 295.792969 137.957031 C 295.800781 137.949219 295.800781 137.941406 295.808594 137.933594 C 295.832031 137.894531 295.847656 137.863281 295.871094 137.824219 C 295.886719 137.792969 295.902344 137.761719 295.917969 137.730469 C 295.933594 137.691406 295.941406 137.652344 295.949219 137.621094 C 295.957031 137.582031 295.972656 137.550781 295.980469 137.511719 C 295.988281 137.472656 295.988281 137.433594 295.988281 137.402344 C 295.988281 137.363281 295.996094 137.324219 295.996094 137.285156 C 295.996094 137.253906 295.988281 137.214844 295.988281 137.183594 C 295.980469 137.136719 295.980469 137.097656 295.972656 137.050781 C 295.972656 137.042969 295.972656 137.035156 295.964844 137.019531 C 295.714844 136 295.582031 134.9375 295.582031 133.851562 C 295.582031 126.539062 301.539062 120.585938 308.851562 120.585938 C 310.660156 120.585938 312.394531 120.953125 314.015625 121.648438 C 315.226562 128.6875 315.851562 135.875 315.875 143.164062 L 315.875 194.992188 L 303.167969 177.261719 C 303.144531 177.230469 303.121094 177.214844 303.097656 177.183594 C 303.082031 177.160156 303.066406 177.144531 303.042969 177.121094 C 303.027344 177.105469 303.003906 177.082031 302.988281 177.066406 C 302.972656 177.050781 302.949219 177.035156 302.925781 177.019531 C 302.878906 176.980469 302.824219 176.949219 302.777344 176.917969 C 302.753906 176.902344 302.722656 176.894531 302.699219 176.878906 C 302.652344 176.855469 302.613281 176.839844 302.566406 176.824219 C 302.550781 176.816406 302.535156 176.808594 302.511719 176.808594 C 302.488281 176.800781 302.472656 176.800781 302.449219 176.792969 C 302.386719 176.777344 302.332031 176.777344 302.269531 176.769531 C 302.253906 176.769531 302.230469 176.761719 302.214844 176.761719 L 257.730469 176.761719 C 257.355469 176.761719 256.996094 176.941406 256.78125 177.253906 L 249.046875 188.054688 C 249.023438 188.085938 248.992188 188.117188 248.96875 188.148438 L 248.367188 188.992188 L 239.953125 177.253906 C 239.929688 177.222656 239.90625 177.207031 239.882812 177.175781 C 239.867188 177.152344 239.851562 177.136719 239.828125 177.113281 C 239.6875 176.972656 239.523438 176.878906 239.351562 176.824219 C 239.328125 176.816406 239.304688 176.808594 239.273438 176.800781 C 239.195312 176.785156 239.117188 176.769531 239.039062 176.769531 C 239.023438 176.769531 239.007812 176.761719 239 176.761719 L 194.515625 176.761719 C 194.140625 176.761719 193.78125 176.941406 193.5625 177.253906 L 185.828125 188.054688 C 185.804688 188.085938 185.773438 188.117188 185.75 188.148438 L 179.398438 197.011719 C 178.34375 196.757812 174.980469 195.625 171.476562 191.238281 L 171.476562 186.078125 C 175.644531 190.253906 179.304688 190.714844 179.484375 190.738281 C 179.53125 190.746094 179.570312 190.746094 179.617188 190.746094 C 180.203125 190.746094 180.703125 190.308594 180.773438 189.707031 C 180.851562 189.070312 180.390625 188.492188 179.75 188.414062 C 179.710938 188.40625 175.691406 187.835938 171.476562 182.566406 L 171.476562 177.410156 C 175.644531 181.585938 179.304688 182.042969 179.484375 182.066406 C 179.53125 182.074219 179.570312 182.074219 179.617188 182.074219 C 180.203125 182.074219 180.703125 181.640625 180.773438 181.039062 C 180.851562 180.398438 180.390625 179.820312 179.75 179.742188 C 179.710938 179.734375 175.691406 179.164062 171.476562 173.898438 L 171.476562 168.738281 C 175.644531 172.914062 179.304688 173.375 179.484375 173.398438 C 179.53125 173.40625 179.570312 173.40625 179.617188 173.40625 C 180.203125 173.40625 180.703125 172.96875 180.773438 172.367188 C 180.851562 171.726562 180.390625 171.148438 179.75 171.070312 C 179.710938 171.0625 175.535156 170.488281 171.234375 164.921875 C 171.015625 164.640625 170.703125 164.492188 170.378906 164.476562 C 170.355469 164.476562 170.324219 164.476562 170.300781 164.476562 C 170.269531 164.476562 170.238281 164.476562 170.207031 164.476562 C 169.878906 164.492188 169.566406 164.648438 169.347656 164.921875 C 165.0625 170.457031 160.902344 171.054688 160.832031 171.070312 C 160.191406 171.148438 159.730469 171.71875 159.800781 172.359375 C 159.863281 172.960938 160.371094 173.40625 160.964844 173.40625 C 161.003906 173.40625 161.050781 173.40625 161.097656 173.398438 C 161.277344 173.375 164.960938 172.914062 169.144531 168.707031 L 169.144531 173.859375 C 164.9375 179.148438 160.910156 179.742188 160.832031 179.75 C 160.191406 179.828125 159.730469 180.398438 159.800781 181.039062 C 159.863281 181.640625 160.371094 182.082031 160.964844 182.082031 C 161.003906 182.082031 161.050781 182.082031 161.097656 182.074219 C 161.277344 182.050781 164.960938 181.59375 169.144531 177.386719 L 169.144531 182.535156 C 164.9375 187.828125 160.902344 188.421875 160.832031 188.429688 C 160.191406 188.507812 159.730469 189.078125 159.800781 189.714844 C 159.863281 190.316406 160.371094 190.761719 160.964844 190.761719 C 161.003906 190.761719 161.050781 190.761719 161.097656 190.753906 C 161.277344 190.730469 164.960938 190.269531 169.144531 186.0625 L 169.144531 191.214844 C 164.9375 196.507812 160.902344 197.097656 160.832031 197.105469 C 160.191406 197.183594 159.730469 197.753906 159.800781 198.394531 C 159.863281 198.996094 160.371094 199.441406 160.964844 199.441406 C 161.003906 199.441406 161.050781 199.441406 161.097656 199.433594 C 161.277344 199.410156 164.960938 198.949219 169.144531 194.742188 L 169.144531 199.894531 C 164.9375 205.183594 160.902344 205.777344 160.832031 205.785156 C 160.191406 205.863281 159.730469 206.433594 159.800781 207.074219 C 159.863281 207.675781 160.371094 208.117188 160.964844 208.117188 C 161.003906 208.117188 161.050781 208.117188 161.097656 208.109375 C 161.277344 208.089844 164.960938 207.628906 169.144531 203.421875 L 169.144531 211.132812 C 169.144531 211.203125 169.152344 211.273438 169.167969 211.335938 L 160.019531 224.101562 C 160.019531 224.101562 160.019531 224.109375 160.011719 224.117188 C 159.957031 224.195312 159.910156 224.28125 159.878906 224.367188 C 159.871094 224.390625 159.863281 224.414062 159.855469 224.4375 C 159.832031 224.507812 159.816406 224.578125 159.808594 224.648438 C 159.808594 224.679688 159.800781 224.703125 159.800781 224.734375 C 159.800781 224.75 159.792969 224.765625 159.792969 224.789062 L 159.792969 232.726562 L 144.949219 232.726562 L 144.949219 219.070312 C 149.117188 223.242188 152.777344 223.703125 152.957031 223.726562 C 153.003906 223.734375 153.042969 223.734375 153.089844 223.734375 C 153.675781 223.734375 154.175781 223.296875 154.246094 222.699219 C 154.324219 222.058594 153.863281 221.480469 153.222656 221.402344 C 153.183594 221.394531 149.164062 220.824219 144.949219 215.558594 L 144.949219 210.398438 C 149.117188 214.574219 152.777344 215.035156 152.957031 215.058594 C 153.003906 215.066406 153.042969 215.066406 153.089844 215.066406 C 153.675781 215.066406 154.175781 214.628906 154.246094 214.027344 C 154.324219 213.386719 153.863281 212.808594 153.222656 212.730469 C 153.183594 212.722656 149.164062 212.152344 144.949219 206.886719 L 144.949219 201.726562 C 149.117188 205.902344 152.777344 206.363281 152.957031 206.386719 C 153.003906 206.394531 153.042969 206.394531 153.089844 206.394531 C 153.675781 206.394531 154.175781 205.957031 154.246094 205.355469 C 154.324219 204.714844 153.863281 204.140625 153.222656 204.0625 C 153.183594 204.054688 149.164062 203.484375 144.949219 198.214844 L 144.949219 193.058594 C 149.117188 197.230469 152.777344 197.691406 152.957031 197.714844 C 153.003906 197.722656 153.042969 197.722656 153.089844 197.722656 C 153.675781 197.722656 154.175781 197.285156 154.246094 196.6875 C 154.324219 196.046875 153.863281 195.46875 153.222656 195.390625 C 153.183594 195.382812 149.164062 194.8125 144.949219 189.542969 L 144.949219 184.386719 C 149.117188 188.5625 152.777344 189.023438 152.957031 189.046875 C 153.003906 189.054688 153.042969 189.054688 153.089844 189.054688 C 153.675781 189.054688 154.175781 188.617188 154.246094 188.015625 C 154.324219 187.375 153.863281 186.796875 153.222656 186.71875 C 153.183594 186.710938 149.007812 186.132812 144.707031 180.570312 C 144.488281 180.289062 144.179688 180.140625 143.851562 180.125 C 143.828125 180.125 143.796875 180.125 143.773438 180.125 C 143.742188 180.125 143.710938 180.125 143.6875 180.125 C 143.359375 180.140625 143.046875 180.296875 142.828125 180.570312 C 138.542969 186.101562 134.382812 186.703125 134.3125 186.71875 C 133.671875 186.796875 133.210938 187.367188 133.28125 188.007812 C 133.34375 188.609375 133.851562 189.054688 134.445312 189.054688 C 134.484375 189.054688 134.53125 189.054688 134.578125 189.046875 C 134.757812 189.023438 138.441406 188.5625 142.625 184.355469 L 142.625 189.503906 C 138.417969 194.796875 134.382812 195.390625 134.3125 195.398438 C 133.671875 195.476562 133.210938 196.046875 133.28125 196.6875 C 133.34375 197.285156 133.851562 197.730469 134.445312 197.730469 C 134.484375 197.730469 134.53125 197.730469 134.578125 197.722656 C 134.757812 197.699219 138.441406 197.238281 142.625 193.035156 L 142.625 198.183594 C 138.417969 203.476562 134.382812 204.070312 134.3125 204.078125 C 133.671875 204.15625 133.210938 204.722656 133.28125 205.363281 C 133.34375 205.964844 133.851562 206.410156 134.445312 206.410156 C 134.484375 206.410156 134.53125 206.410156 134.578125 206.402344 C 134.757812 206.378906 138.441406 205.917969 142.625 201.710938 L 142.625 206.863281 C 138.417969 212.152344 134.382812 212.746094 134.3125 212.753906 C 133.671875 212.832031 133.210938 213.402344 133.28125 214.042969 C 133.34375 214.644531 133.851562 215.089844 134.445312 215.089844 C 134.484375 215.089844 134.53125 215.089844 134.578125 215.082031 C 134.757812 215.058594 138.441406 214.597656 142.625 210.390625 L 142.625 215.542969 C 138.417969 220.832031 134.382812 221.425781 134.3125 221.433594 C 133.671875 221.511719 133.210938 222.082031 133.28125 222.722656 C 133.34375 223.320312 133.851562 223.765625 134.445312 223.765625 C 134.484375 223.765625 134.53125 223.765625 134.578125 223.757812 C 134.757812 223.734375 138.441406 223.273438 142.625 219.070312 L 142.625 232.765625 L 116.089844 232.765625 L 116.089844 215.300781 C 120.257812 219.472656 123.917969 219.933594 124.097656 219.957031 C 124.144531 219.964844 124.183594 219.964844 124.230469 219.964844 C 124.816406 219.964844 125.316406 219.527344 125.386719 218.929688 C 125.464844 218.289062 125.003906 217.710938 124.363281 217.632812 C 124.324219 217.625 120.304688 217.054688 116.089844 211.789062 L 116.089844 206.628906 C 120.257812 210.804688 123.917969 211.265625 124.097656 211.289062 C 124.144531 211.296875 124.183594 211.296875 124.230469 211.296875 C 124.816406 211.296875 125.316406 210.859375 125.386719 210.257812 C 125.464844 209.617188 125.003906 209.039062 124.363281 208.960938 C 124.324219 208.953125 120.304688 208.382812 116.089844 203.117188 L 116.089844 197.957031 C 120.257812 202.132812 123.917969 202.59375 124.097656 202.617188 C 124.144531 202.625 124.183594 202.625 124.230469 202.625 C 124.816406 202.625 125.316406 202.1875 125.386719 201.585938 C 125.464844 200.945312 125.003906 200.371094 124.363281 200.292969 C 124.324219 200.285156 120.304688 199.714844 116.089844 194.445312 L 116.089844 189.289062 C 120.257812 193.460938 123.917969 193.921875 124.097656 193.945312 C 124.144531 193.953125 124.183594 193.953125 124.230469 193.953125 C 124.816406 193.953125 125.316406 193.515625 125.386719 192.917969 C 125.464844 192.277344 125.003906 191.699219 124.363281 191.621094 C 124.324219 191.613281 120.304688 191.042969 116.089844 185.773438 L 116.089844 180.617188 C 120.257812 184.792969 123.917969 185.253906 124.097656 185.277344 C 124.144531 185.285156 124.183594 185.285156 124.230469 185.285156 C 124.816406 185.285156 125.316406 184.847656 125.386719 184.246094 C 125.464844 183.605469 125.003906 183.027344 124.363281 182.949219 C 124.324219 182.941406 120.304688 182.371094 116.089844 177.105469 L 116.089844 171.945312 C 120.257812 176.121094 123.917969 176.582031 124.097656 176.605469 C 124.144531 176.613281 124.183594 176.613281 124.230469 176.613281 C 124.816406 176.613281 125.316406 176.175781 125.386719 175.574219 C 125.464844 174.933594 125.003906 174.355469 124.363281 174.28125 C 124.324219 174.273438 120.148438 173.695312 115.847656 168.128906 C 115.628906 167.847656 115.316406 167.699219 114.988281 167.683594 C 114.964844 167.683594 114.933594 167.683594 114.910156 167.683594 C 114.878906 167.683594 114.847656 167.683594 114.816406 167.683594 C 114.488281 167.707031 114.179688 167.855469 113.960938 168.128906 C 109.675781 173.664062 105.515625 174.265625 105.445312 174.28125 C 104.804688 174.355469 104.34375 174.925781 104.414062 175.566406 C 104.476562 176.167969 104.984375 176.613281 105.578125 176.613281 C 105.617188 176.613281 105.664062 176.613281 105.710938 176.605469 C 105.890625 176.582031 109.574219 176.121094 113.757812 171.914062 L 113.757812 177.066406 C 109.550781 182.355469 105.523438 182.949219 105.445312 182.957031 C 104.804688 183.035156 104.34375 183.605469 104.414062 184.246094 C 104.476562 184.847656 104.984375 185.292969 105.578125 185.292969 C 105.617188 185.292969 105.664062 185.292969 105.710938 185.285156 C 105.890625 185.261719 109.574219 184.800781 113.757812 180.59375 L 113.757812 185.742188 C 109.550781 191.035156 105.515625 191.628906 105.445312 191.636719 C 104.804688 191.714844 104.34375 192.285156 104.414062 192.925781 C 104.476562 193.523438 104.984375 193.96875 105.578125 193.96875 C 105.617188 193.96875 105.664062 193.96875 105.710938 193.960938 C 105.890625 193.9375 109.574219 193.476562 113.757812 189.273438 L 113.757812 194.421875 C 109.550781 199.714844 105.515625 200.308594 105.445312 200.316406 C 104.804688 200.394531 104.34375 200.960938 104.414062 201.601562 C 104.476562 202.203125 104.984375 202.648438 105.578125 202.648438 C 105.617188 202.648438 105.664062 202.648438 105.710938 202.640625 C 105.890625 202.617188 109.574219 202.15625 113.757812 197.949219 L 113.757812 203.101562 C 109.550781 208.390625 105.515625 208.984375 105.445312 208.992188 C 104.804688 209.070312 104.34375 209.640625 104.414062 210.28125 C 104.476562 210.882812 104.984375 211.328125 105.578125 211.328125 C 105.617188 211.328125 105.664062 211.328125 105.710938 211.320312 C 105.890625 211.296875 109.574219 210.835938 113.757812 206.628906 L 113.757812 211.78125 C 109.550781 217.070312 105.515625 217.664062 105.445312 217.671875 C 104.804688 217.75 104.34375 218.320312 104.414062 218.960938 C 104.476562 219.558594 104.984375 220.003906 105.578125 220.003906 C 105.617188 220.003906 105.664062 220.003906 105.710938 219.996094 C 105.890625 219.972656 109.574219 219.511719 113.757812 215.308594 L 113.757812 232.8125 L 100.871094 232.8125 L 100.871094 228.136719 C 100.871094 222.714844 96.453125 218.296875 91.03125 218.296875 C 89.203125 218.296875 87.464844 218.796875 85.941406 219.722656 C 85.144531 215.269531 81.257812 211.871094 76.578125 211.871094 C 74.28125 211.871094 72.136719 212.691406 70.449219 214.121094 C 69.464844 209.539062 65.386719 206.089844 60.515625 206.089844 C 60.3125 206.089844 60.101562 206.097656 59.898438 206.113281 L 59.898438 143.265625 C 59.992188 109.050781 73.34375 76.988281 97.507812 52.898438 Z M 302.027344 336.585938 C 299.976562 334.707031 297.292969 333.636719 294.417969 333.636719 C 288.730469 333.636719 284.023438 337.859375 283.234375 343.328125 C 281.347656 342.105469 279.15625 341.441406 276.859375 341.441406 C 270.40625 341.441406 265.152344 346.695312 265.152344 353.148438 L 265.152344 359.390625 L 262.421875 359.390625 L 262.421875 322.320312 C 262.421875 322.242188 262.414062 322.171875 262.398438 322.101562 C 262.398438 322.101562 262.398438 322.09375 262.398438 322.09375 C 262.375 321.992188 262.34375 321.898438 262.296875 321.804688 C 262.289062 321.78125 262.273438 321.765625 262.265625 321.742188 C 262.210938 321.648438 262.15625 321.5625 262.078125 321.492188 L 223.835938 283.25 C 223.617188 283.035156 223.320312 282.910156 223.011719 282.910156 L 151.988281 282.910156 C 151.851562 282.910156 151.71875 282.941406 151.59375 282.988281 C 151.554688 283.003906 151.523438 283.019531 151.492188 283.035156 C 151.398438 283.082031 151.304688 283.136719 151.226562 283.210938 C 151.210938 283.226562 151.1875 283.234375 151.164062 283.25 L 112.921875 321.492188 C 112.703125 321.710938 112.578125 322.007812 112.578125 322.320312 L 112.578125 359.390625 L 106.726562 359.390625 L 106.726562 299.296875 L 127.40625 299.296875 C 128.054688 299.296875 128.578125 298.773438 128.578125 298.128906 C 128.578125 297.480469 128.054688 296.957031 127.40625 296.957031 L 106.132812 296.957031 L 93.527344 280.449219 L 155.503906 280.449219 C 156.148438 280.449219 156.671875 279.925781 156.671875 279.28125 C 156.671875 278.632812 156.148438 278.109375 155.503906 278.109375 L 92.675781 278.109375 C 92.394531 278.109375 92.144531 278.210938 91.941406 278.375 L 83.71875 267.605469 L 155.503906 267.605469 C 156.148438 267.605469 156.671875 267.082031 156.671875 266.433594 C 156.671875 265.785156 156.148438 265.261719 155.503906 265.261719 L 81.929688 265.261719 L 75.140625 256.375 L 155.503906 256.375 C 156.148438 256.375 156.671875 255.851562 156.671875 255.203125 C 156.671875 254.554688 156.148438 254.03125 155.503906 254.03125 L 72.777344 254.03125 C 72.761719 254.03125 72.746094 254.039062 72.730469 254.039062 C 72.652344 254.039062 72.574219 254.054688 72.496094 254.070312 C 72.472656 254.078125 72.449219 254.078125 72.425781 254.085938 C 72.339844 254.117188 72.253906 254.148438 72.167969 254.203125 C 72.152344 254.210938 72.136719 254.226562 72.113281 254.242188 C 72.050781 254.28125 71.996094 254.328125 71.941406 254.382812 C 71.917969 254.40625 71.902344 254.421875 71.878906 254.445312 C 71.863281 254.460938 71.847656 254.476562 71.839844 254.492188 L 59.898438 270.140625 L 59.898438 235.042969 L 99.683594 235.042969 C 99.691406 235.042969 99.691406 235.042969 99.699219 235.042969 C 99.707031 235.042969 99.707031 235.042969 99.714844 235.042969 L 159.792969 235.042969 L 159.792969 279.394531 C 159.792969 280.042969 160.316406 280.566406 160.964844 280.566406 C 161.613281 280.566406 162.136719 280.042969 162.136719 279.394531 L 162.136719 225.9375 L 204.28125 225.9375 L 204.28125 279.394531 C 204.28125 280.042969 204.800781 280.566406 205.449219 280.566406 C 206.097656 280.566406 206.621094 280.042969 206.621094 279.394531 L 206.621094 225.140625 L 214.136719 214.644531 C 214.160156 214.613281 214.191406 214.582031 214.214844 214.550781 L 239.007812 179.945312 L 271.398438 225.140625 L 271.398438 336.367188 C 271.398438 337.015625 271.917969 337.539062 272.566406 337.539062 C 273.214844 337.539062 273.738281 337.015625 273.738281 336.367188 L 273.738281 224.765625 C 273.738281 224.523438 273.660156 224.28125 273.519531 224.085938 L 272.050781 222.042969 L 277.351562 214.644531 C 277.375 214.613281 277.40625 214.582031 277.429688 214.550781 L 302.222656 179.945312 L 315.882812 199.003906 L 315.882812 236.082031 L 310.027344 236.082031 C 309.382812 236.082031 308.859375 236.605469 308.859375 237.253906 L 308.859375 246.617188 C 308.859375 247.265625 309.382812 247.789062 310.027344 247.789062 L 315.882812 247.789062 L 315.882812 257.152344 L 310.027344 257.152344 C 309.382812 257.152344 308.859375 257.675781 308.859375 258.324219 L 308.859375 267.691406 C 308.859375 268.335938 309.382812 268.859375 310.027344 268.859375 L 315.882812 268.859375 L 315.882812 278.226562 L 310.027344 278.226562 C 309.382812 278.226562 308.859375 278.75 308.859375 279.394531 L 308.859375 288.761719 C 308.859375 289.410156 309.382812 289.933594 310.027344 289.933594 L 315.882812 289.933594 L 315.882812 326.777344 C 315.242188 326.675781 314.585938 326.613281 313.929688 326.613281 C 307.984375 326.613281 303.042969 330.929688 302.027344 336.585938 Z M 171.109375 332.855469 L 156.28125 332.855469 C 155.632812 332.855469 155.113281 333.378906 155.113281 334.027344 L 155.113281 359.390625 L 114.917969 359.390625 L 114.917969 322.804688 L 151.988281 285.734375 L 162.871094 296.613281 L 175.355469 309.101562 L 189.0625 322.804688 L 189.0625 359.390625 L 172.28125 359.390625 L 172.28125 334.027344 C 172.28125 333.378906 171.757812 332.855469 171.109375 332.855469 Z M 190.714844 321.148438 L 179.007812 309.441406 L 246.023438 309.441406 C 246.226562 309.441406 246.40625 309.386719 246.570312 309.304688 L 258.417969 321.148438 Z M 176.667969 307.101562 L 166.523438 296.957031 L 233.539062 296.957031 C 233.742188 296.957031 233.921875 296.902344 234.085938 296.816406 L 244.371094 307.101562 Z M 164.179688 294.613281 L 154.816406 285.25 L 222.527344 285.25 L 231.890625 294.613281 Z M 191.402344 323.492188 L 260.082031 323.492188 L 260.082031 359.390625 L 191.402344 359.390625 Z M 87.042969 322.421875 L 87.042969 359.390625 L 73.945312 359.390625 L 73.945312 322.421875 Z M 88.210938 320.082031 L 59.898438 320.082031 L 59.898438 273.988281 L 72.777344 257.121094 L 104.382812 298.523438 L 104.382812 359.390625 L 89.382812 359.390625 L 89.382812 321.25 C 89.382812 320.605469 88.859375 320.082031 88.210938 320.082031 Z M 68.3125 216.875 C 68.3125 216.914062 68.3125 216.960938 68.3125 217 C 68.3125 217.039062 68.320312 217.078125 68.328125 217.109375 C 68.335938 217.148438 68.34375 217.179688 68.351562 217.21875 C 68.359375 217.257812 68.375 217.289062 68.390625 217.328125 C 68.40625 217.359375 68.421875 217.398438 68.4375 217.429688 C 68.453125 217.460938 68.46875 217.492188 68.492188 217.523438 C 68.515625 217.554688 68.53125 217.585938 68.5625 217.617188 C 68.585938 217.648438 68.609375 217.671875 68.632812 217.703125 C 68.65625 217.726562 68.6875 217.757812 68.710938 217.78125 C 68.742188 217.804688 68.773438 217.835938 68.8125 217.859375 C 68.828125 217.875 68.84375 217.890625 68.867188 217.898438 C 68.882812 217.90625 68.890625 217.90625 68.90625 217.914062 C 68.945312 217.9375 68.984375 217.953125 69.023438 217.96875 C 69.054688 217.984375 69.085938 218 69.125 218.007812 C 69.164062 218.023438 69.203125 218.03125 69.242188 218.039062 C 69.28125 218.046875 69.320312 218.054688 69.359375 218.0625 C 69.375 218.0625 69.386719 218.070312 69.402344 218.070312 C 69.433594 218.070312 69.464844 218.070312 69.496094 218.070312 C 69.503906 218.070312 69.503906 218.070312 69.511719 218.070312 C 69.644531 218.070312 69.777344 218.039062 69.902344 218 C 69.917969 217.992188 69.933594 217.992188 69.949219 217.984375 C 70.066406 217.9375 70.175781 217.867188 70.269531 217.78125 C 70.285156 217.765625 70.292969 217.757812 70.308594 217.75 C 70.378906 217.679688 70.441406 217.609375 70.496094 217.523438 C 71.808594 215.394531 74.09375 214.113281 76.601562 214.113281 C 80.558594 214.113281 83.78125 217.335938 83.78125 221.292969 C 83.78125 221.457031 83.773438 221.621094 83.757812 221.785156 C 83.757812 221.816406 83.757812 221.847656 83.757812 221.878906 C 83.757812 221.886719 83.757812 221.894531 83.757812 221.910156 C 83.757812 222.058594 83.789062 222.199219 83.835938 222.332031 C 83.835938 222.339844 83.84375 222.339844 83.84375 222.347656 C 83.898438 222.488281 83.984375 222.613281 84.09375 222.722656 C 84.09375 222.722656 84.09375 222.722656 84.09375 222.730469 C 84.09375 222.730469 84.09375 222.730469 84.101562 222.730469 C 84.210938 222.839844 84.335938 222.917969 84.472656 222.980469 C 84.480469 222.980469 84.480469 222.988281 84.488281 222.988281 C 84.589844 223.027344 84.691406 223.058594 84.808594 223.074219 C 84.847656 223.074219 84.886719 223.082031 84.925781 223.082031 C 85.082031 223.082031 85.222656 223.050781 85.363281 222.996094 C 85.386719 222.988281 85.410156 222.964844 85.433594 222.957031 C 85.542969 222.902344 85.644531 222.839844 85.730469 222.761719 C 85.738281 222.753906 85.746094 222.753906 85.753906 222.746094 C 87.175781 221.332031 89.054688 220.558594 91.054688 220.558594 C 95.191406 220.558594 98.554688 223.921875 98.554688 228.058594 L 98.554688 232.734375 L 59.898438 232.734375 L 59.898438 208.398438 C 60.101562 208.382812 60.3125 208.351562 60.515625 208.351562 C 64.832031 208.351562 68.335938 211.867188 68.335938 216.171875 C 68.335938 216.390625 68.320312 216.617188 68.304688 216.835938 C 68.3125 216.828125 68.3125 216.851562 68.3125 216.875 Z M 230.605469 187.664062 L 189 187.664062 L 195.125 179.109375 L 236.730469 179.109375 Z M 187.3125 190.003906 L 228.925781 190.003906 L 221.636719 200.183594 L 180.023438 200.183594 Z M 212.660156 212.699219 L 171.046875 212.699219 L 178.335938 202.523438 L 219.949219 202.523438 Z M 174.886719 203.328125 C 173.695312 202.398438 172.546875 201.257812 171.484375 199.917969 L 171.484375 194.757812 C 174.085938 197.363281 176.480469 198.527344 177.964844 199.027344 Z M 171.484375 203.4375 C 172.140625 204.101562 172.828125 204.691406 173.523438 205.230469 L 171.484375 208.082031 Z M 169.386719 215.027344 C 169.441406 215.035156 169.496094 215.042969 169.558594 215.042969 L 210.976562 215.042969 L 204.847656 223.59375 L 163.242188 223.59375 Z M 267.042969 215.042969 L 274.191406 215.042969 L 270.617188 220.035156 Z M 275.875 212.699219 L 265.363281 212.699219 L 258.074219 202.523438 L 283.171875 202.523438 Z M 284.84375 200.183594 L 256.390625 200.183594 L 249.808594 191.003906 L 250.527344 190.003906 L 292.140625 190.003906 Z M 293.820312 187.664062 L 252.214844 187.664062 L 258.339844 179.109375 L 299.945312 179.109375 Z M 315.882812 238.421875 L 315.882812 245.449219 L 311.199219 245.449219 L 311.199219 238.421875 Z M 315.882812 259.496094 L 315.882812 266.519531 L 311.199219 266.519531 L 311.199219 259.496094 Z M 315.882812 280.566406 L 315.882812 287.589844 L 311.199219 287.589844 L 311.199219 280.566406 Z M 59.898438 322.421875 L 71.605469 322.421875 L 71.605469 359.390625 L 59.898438 359.390625 Z M 157.453125 359.390625 L 157.453125 335.199219 L 169.941406 335.199219 L 169.941406 359.390625 Z M 272.566406 359.390625 L 267.496094 359.390625 L 267.496094 353.148438 C 267.496094 347.980469 271.695312 343.78125 276.859375 343.78125 C 279.351562 343.78125 281.707031 344.757812 283.476562 346.515625 C 283.484375 346.523438 283.492188 346.523438 283.5 346.53125 C 283.59375 346.617188 283.695312 346.679688 283.8125 346.734375 C 283.835938 346.742188 283.851562 346.765625 283.875 346.773438 C 284.007812 346.828125 284.15625 346.859375 284.304688 346.859375 C 284.304688 346.859375 284.304688 346.859375 284.3125 346.859375 C 284.351562 346.859375 284.382812 346.859375 284.421875 346.851562 C 284.53125 346.84375 284.632812 346.8125 284.726562 346.773438 C 284.742188 346.765625 284.757812 346.757812 284.78125 346.75 C 284.90625 346.695312 285.023438 346.617188 285.117188 346.523438 C 285.125 346.515625 285.132812 346.515625 285.140625 346.507812 C 285.148438 346.5 285.148438 346.492188 285.15625 346.484375 C 285.25 346.382812 285.328125 346.273438 285.382812 346.140625 C 285.390625 346.125 285.398438 346.109375 285.40625 346.09375 C 285.453125 345.96875 285.476562 345.84375 285.476562 345.710938 C 285.476562 345.6875 285.476562 345.671875 285.476562 345.648438 C 285.476562 345.625 285.476562 345.59375 285.476562 345.570312 C 285.453125 345.367188 285.453125 345.164062 285.453125 344.953125 C 285.453125 340.003906 289.480469 335.976562 294.425781 335.976562 C 297.558594 335.976562 300.414062 337.570312 302.050781 340.238281 C 302.105469 340.324219 302.167969 340.402344 302.238281 340.464844 C 302.253906 340.480469 302.261719 340.488281 302.277344 340.496094 C 302.371094 340.582031 302.480469 340.652344 302.597656 340.699219 C 302.613281 340.707031 302.628906 340.707031 302.644531 340.714844 C 302.769531 340.761719 302.894531 340.785156 303.027344 340.785156 C 303.035156 340.785156 303.035156 340.785156 303.042969 340.785156 C 303.074219 340.785156 303.105469 340.785156 303.136719 340.785156 C 303.152344 340.785156 303.167969 340.777344 303.175781 340.777344 C 303.214844 340.769531 303.253906 340.761719 303.292969 340.753906 C 303.332031 340.746094 303.371094 340.738281 303.402344 340.722656 C 303.433594 340.714844 303.464844 340.699219 303.503906 340.683594 C 303.542969 340.667969 303.582031 340.652344 303.621094 340.628906 C 303.636719 340.621094 303.644531 340.621094 303.660156 340.613281 C 303.675781 340.597656 303.691406 340.582031 303.714844 340.574219 C 303.746094 340.550781 303.777344 340.527344 303.808594 340.503906 C 303.839844 340.480469 303.863281 340.449219 303.894531 340.425781 C 303.917969 340.402344 303.941406 340.371094 303.964844 340.339844 C 303.988281 340.308594 304.011719 340.277344 304.035156 340.246094 C 304.050781 340.214844 304.074219 340.183594 304.089844 340.152344 C 304.105469 340.121094 304.121094 340.082031 304.136719 340.050781 C 304.152344 340.019531 304.160156 339.980469 304.175781 339.949219 C 304.183594 339.910156 304.191406 339.871094 304.199219 339.832031 C 304.207031 339.800781 304.207031 339.761719 304.214844 339.730469 C 304.222656 339.683594 304.222656 339.644531 304.214844 339.597656 C 304.214844 339.574219 304.214844 339.558594 304.214844 339.542969 C 304.191406 339.273438 304.183594 339 304.183594 338.726562 C 304.183594 333.347656 308.5625 328.96875 313.9375 328.96875 C 314.601562 328.96875 315.25 329.039062 315.890625 329.171875 L 315.890625 359.40625 L 272.566406 359.40625 Z M 288.082031 41.589844 C 261.195312 14.773438 225.476562 0 187.5 0 C 149.523438 0 113.804688 14.773438 86.917969 41.589844 C 60.03125 68.40625 45.171875 104.078125 45.070312 142.039062 L 45.070312 373.828125 C 45.070312 374.476562 45.59375 375 46.242188 375 L 328.757812 375 C 329.40625 375 329.929688 374.476562 329.929688 373.828125 L 329.929688 142.039062 C 329.828125 104.078125 314.96875 68.40625 288.082031 41.589844 Z M 327.589844 372.660156 L 47.410156 372.660156 L 47.410156 142.039062 C 47.511719 104.703125 62.128906 69.613281 88.570312 43.242188 C 115.011719 16.867188 150.148438 2.339844 187.5 2.339844 C 224.851562 2.339844 259.988281 16.867188 286.429688 43.242188 C 312.871094 69.621094 327.488281 104.703125 327.589844 142.039062 Z M 231.203125 236.082031 L 221.839844 236.082031 C 221.191406 236.082031 220.667969 236.605469 220.667969 237.253906 L 220.667969 246.617188 C 220.667969 247.265625 221.191406 247.789062 221.839844 247.789062 L 231.203125 247.789062 C 231.851562 247.789062 232.375 247.265625 232.375 246.617188 L 232.375 237.253906 C 232.375 236.605469 231.851562 236.082031 231.203125 236.082031 Z M 230.035156 245.449219 L 223.011719 245.449219 L 223.011719 238.421875 L 230.035156 238.421875 Z M 231.203125 257.152344 L 221.839844 257.152344 C 221.191406 257.152344 220.667969 257.675781 220.667969 258.324219 L 220.667969 267.691406 C 220.667969 268.335938 221.191406 268.859375 221.839844 268.859375 L 231.203125 268.859375 C 231.851562 268.859375 232.375 268.335938 232.375 267.691406 L 232.375 258.324219 C 232.375 257.675781 231.851562 257.152344 231.203125 257.152344 Z M 230.035156 266.519531 L 223.011719 266.519531 L 223.011719 259.496094 L 230.035156 259.496094 Z M 232.375 279.394531 L 232.375 286.421875 C 232.375 287.066406 231.851562 287.589844 231.203125 287.589844 C 230.558594 287.589844 230.035156 287.066406 230.035156 286.421875 L 230.035156 280.566406 L 221.839844 280.566406 C 221.191406 280.566406 220.667969 280.042969 220.667969 279.394531 C 220.667969 278.75 221.191406 278.226562 221.839844 278.226562 L 231.203125 278.226562 C 231.851562 278.226562 232.375 278.75 232.375 279.394531 Z M 256.179688 236.082031 L 246.8125 236.082031 C 246.164062 236.082031 245.640625 236.605469 245.640625 237.253906 L 245.640625 246.617188 C 245.640625 247.265625 246.164062 247.789062 246.8125 247.789062 L 256.179688 247.789062 C 256.828125 247.789062 257.347656 247.265625 257.347656 246.617188 L 257.347656 237.253906 C 257.347656 236.605469 256.828125 236.082031 256.179688 236.082031 Z M 255.007812 245.449219 L 247.984375 245.449219 L 247.984375 238.421875 L 255.007812 238.421875 Z M 256.179688 257.152344 L 246.8125 257.152344 C 246.164062 257.152344 245.640625 257.675781 245.640625 258.324219 L 245.640625 267.691406 C 245.640625 268.335938 246.164062 268.859375 246.8125 268.859375 L 256.179688 268.859375 C 256.828125 268.859375 257.347656 268.335938 257.347656 267.691406 L 257.347656 258.324219 C 257.347656 257.675781 256.828125 257.152344 256.179688 257.152344 Z M 255.007812 266.519531 L 247.984375 266.519531 L 247.984375 259.496094 L 255.007812 259.496094 Z M 256.179688 278.226562 L 246.8125 278.226562 C 246.164062 278.226562 245.640625 278.75 245.640625 279.394531 L 245.640625 288.761719 C 245.640625 289.410156 246.164062 289.933594 246.8125 289.933594 L 256.179688 289.933594 C 256.828125 289.933594 257.347656 289.410156 257.347656 288.761719 L 257.347656 279.394531 C 257.347656 278.75 256.828125 278.226562 256.179688 278.226562 Z M 255.007812 287.589844 L 247.984375 287.589844 L 247.984375 280.566406 L 255.007812 280.566406 Z M 214.816406 332.855469 L 205.449219 332.855469 C 204.800781 332.855469 204.28125 333.378906 204.28125 334.027344 L 204.28125 343.390625 C 204.28125 344.039062 204.800781 344.5625 205.449219 344.5625 L 214.816406 344.5625 C 215.464844 344.5625 215.984375 344.039062 215.984375 343.390625 L 215.984375 334.027344 C 215.984375 333.378906 215.464844 332.855469 214.816406 332.855469 Z M 213.644531 342.222656 L 206.621094 342.222656 L 206.621094 335.199219 L 213.644531 335.199219 Z M 142.234375 332.855469 L 132.871094 332.855469 C 132.222656 332.855469 131.699219 333.378906 131.699219 334.027344 L 131.699219 343.390625 C 131.699219 344.039062 132.222656 344.5625 132.871094 344.5625 L 142.234375 344.5625 C 142.882812 344.5625 143.40625 344.039062 143.40625 343.390625 L 143.40625 334.027344 C 143.40625 333.378906 142.882812 332.855469 142.234375 332.855469 Z M 141.0625 342.222656 L 134.039062 342.222656 L 134.039062 335.199219 L 141.0625 335.199219 Z M 239.789062 332.855469 L 230.425781 332.855469 C 229.777344 332.855469 229.253906 333.378906 229.253906 334.027344 L 229.253906 343.390625 C 229.253906 344.039062 229.777344 344.5625 230.425781 344.5625 L 239.789062 344.5625 C 240.4375 344.5625 240.960938 344.039062 240.960938 343.390625 L 240.960938 334.027344 C 240.960938 333.378906 240.4375 332.855469 239.789062 332.855469 Z M 238.617188 342.222656 L 231.59375 342.222656 L 231.59375 335.199219 L 238.617188 335.199219 Z M 151.988281 309.441406 C 147.691406 309.441406 144.1875 312.949219 144.1875 317.246094 C 144.1875 321.546875 147.691406 325.050781 151.988281 325.050781 C 156.289062 325.050781 159.792969 321.546875 159.792969 317.246094 C 159.792969 312.949219 156.289062 309.441406 151.988281 309.441406 Z M 151.988281 322.710938 C 148.976562 322.710938 146.527344 320.261719 146.527344 317.246094 C 146.527344 314.234375 148.976562 311.785156 151.988281 311.785156 C 155.003906 311.785156 157.453125 314.234375 157.453125 317.246094 C 157.453125 320.261719 155.003906 322.710938 151.988281 322.710938 Z M 72.386719 289.933594 C 68.085938 289.933594 64.582031 293.4375 64.582031 297.738281 C 64.582031 302.035156 68.085938 305.542969 72.386719 305.542969 C 76.6875 305.542969 80.191406 302.035156 80.191406 297.738281 C 80.191406 293.4375 76.6875 289.933594 72.386719 289.933594 Z M 72.386719 303.199219 C 69.375 303.199219 66.921875 300.75 66.921875 297.738281 C 66.921875 294.722656 69.375 292.273438 72.386719 292.273438 C 75.398438 292.273438 77.847656 294.722656 77.847656 297.738281 C 77.847656 300.75 75.398438 303.199219 72.386719 303.199219 Z M 244.824219 213.144531 C 243.410156 211.359375 241.289062 210.328125 239.007812 210.328125 C 236.730469 210.328125 234.605469 211.359375 233.203125 213.144531 C 232.164062 214.449219 231.59375 216.078125 231.59375 217.742188 C 231.59375 221.832031 234.917969 225.15625 239.007812 225.15625 C 243.097656 225.15625 246.421875 221.832031 246.421875 217.742188 C 246.421875 216.078125 245.851562 214.449219 244.824219 213.144531 Z M 239.007812 222.816406 C 236.214844 222.816406 233.9375 220.535156 233.9375 217.742188 C 233.9375 216.601562 234.328125 215.488281 235.035156 214.597656 C 236.003906 213.371094 237.449219 212.667969 239.007812 212.667969 C 240.570312 212.667969 242.011719 213.371094 242.980469 214.597656 C 243.691406 215.488281 244.082031 216.601562 244.082031 217.742188 C 244.082031 220.535156 241.804688 222.816406 239.007812 222.816406 Z M 294.417969 236.082031 L 285.054688 236.082031 C 284.40625 236.082031 283.882812 236.605469 283.882812 237.253906 L 283.882812 246.617188 C 283.882812 247.265625 284.40625 247.789062 285.054688 247.789062 L 294.417969 247.789062 C 295.066406 247.789062 295.589844 247.265625 295.589844 246.617188 L 295.589844 237.253906 C 295.589844 236.605469 295.066406 236.082031 294.417969 236.082031 Z M 293.25 245.449219 L 286.226562 245.449219 L 286.226562 238.421875 L 293.25 238.421875 Z M 294.417969 257.152344 L 285.054688 257.152344 C 284.40625 257.152344 283.882812 257.675781 283.882812 258.324219 L 283.882812 267.691406 C 283.882812 268.335938 284.40625 268.859375 285.054688 268.859375 L 294.417969 268.859375 C 295.066406 268.859375 295.589844 268.335938 295.589844 267.691406 L 295.589844 258.324219 C 295.589844 257.675781 295.066406 257.152344 294.417969 257.152344 Z M 293.25 266.519531 L 286.226562 266.519531 L 286.226562 259.496094 L 293.25 259.496094 Z M 294.417969 278.226562 L 285.054688 278.226562 C 284.40625 278.226562 283.882812 278.75 283.882812 279.394531 L 283.882812 288.761719 C 283.882812 289.410156 284.40625 289.933594 285.054688 289.933594 L 294.417969 289.933594 C 295.066406 289.933594 295.589844 289.410156 295.589844 288.761719 L 295.589844 279.394531 C 295.589844 278.75 295.066406 278.226562 294.417969 278.226562 Z M 293.25 287.589844 L 286.226562 287.589844 L 286.226562 280.566406 L 293.25 280.566406 Z M 309.636719 217.742188 C 309.636719 213.652344 306.3125 210.328125 302.222656 210.328125 C 298.136719 210.328125 294.808594 213.652344 294.808594 217.742188 C 294.808594 221.832031 298.136719 225.15625 302.222656 225.15625 C 306.3125 225.15625 309.636719 221.832031 309.636719 217.742188 Z M 302.222656 222.816406 C 299.429688 222.816406 297.152344 220.535156 297.152344 217.742188 C 297.152344 214.949219 299.429688 212.667969 302.222656 212.667969 C 305.019531 212.667969 307.296875 214.949219 307.296875 217.742188 C 307.296875 220.535156 305.019531 222.816406 302.222656 222.816406 Z M 94.832031 243.527344 C 94.832031 244.175781 94.308594 244.699219 93.660156 244.699219 L 72.777344 244.699219 C 72.128906 244.699219 71.605469 244.175781 71.605469 243.527344 C 71.605469 242.878906 72.128906 242.355469 72.777344 242.355469 L 93.660156 242.355469 C 94.308594 242.355469 94.832031 242.878906 94.832031 243.527344 Z M 105.476562 243.527344 C 105.476562 244.175781 104.953125 244.699219 104.304688 244.699219 L 101.089844 244.699219 C 100.441406 244.699219 99.917969 244.175781 99.917969 243.527344 C 99.917969 242.878906 100.441406 242.355469 101.089844 242.355469 L 104.304688 242.355469 C 104.945312 242.355469 105.476562 242.878906 105.476562 243.527344 Z M 152.253906 243.527344 C 152.253906 244.175781 151.734375 244.699219 151.085938 244.699219 L 122.621094 244.699219 C 121.972656 244.699219 121.453125 244.175781 121.453125 243.527344 C 121.453125 242.878906 121.972656 242.355469 122.621094 242.355469 L 151.09375 242.355469 C 151.734375 242.355469 152.253906 242.878906 152.253906 243.527344 Z M 211.78125 76.773438 L 199.621094 66.601562 C 199.121094 66.1875 198.386719 66.25 197.972656 66.75 C 197.558594 67.25 197.621094 67.984375 198.121094 68.398438 L 210.085938 78.410156 C 208.953125 79.652344 207.988281 81.03125 207.207031 82.539062 L 206.410156 82.203125 C 205.808594 81.953125 205.128906 82.234375 204.878906 82.828125 C 204.628906 83.421875 204.910156 84.109375 205.503906 84.359375 L 206.261719 84.675781 C 205.621094 86.394531 205.230469 88.226562 205.113281 90.140625 L 199.621094 90.140625 C 198.972656 90.140625 198.449219 90.664062 198.449219 91.3125 C 198.449219 91.957031 198.972656 92.480469 199.621094 92.480469 L 205.113281 92.480469 C 205.207031 93.996094 205.472656 95.457031 205.894531 96.859375 L 198.535156 99.824219 C 197.933594 100.066406 197.644531 100.746094 197.886719 101.347656 C 198.074219 101.800781 198.511719 102.082031 198.972656 102.082031 C 199.121094 102.082031 199.269531 102.050781 199.410156 101.996094 L 206.714844 99.054688 C 207.308594 100.378906 208.035156 101.628906 208.898438 102.777344 L 202.828125 109.207031 C 202.382812 109.675781 202.40625 110.417969 202.875 110.859375 C 203.101562 111.070312 203.390625 111.179688 203.679688 111.179688 C 203.992188 111.179688 204.304688 111.054688 204.527344 110.8125 L 210.429688 104.570312 C 211.6875 105.875 213.128906 107.003906 214.714844 107.910156 L 212.503906 112.773438 C 212.238281 113.359375 212.496094 114.054688 213.089844 114.328125 C 213.246094 114.394531 213.410156 114.425781 213.574219 114.425781 C 214.019531 114.425781 214.449219 114.171875 214.644531 113.742188 L 216.8125 108.957031 C 218.742188 109.769531 220.832031 110.269531 223.027344 110.402344 L 223.027344 121.054688 C 223.027344 121.703125 223.546875 122.222656 224.195312 122.222656 C 224.84375 122.222656 225.367188 121.703125 225.367188 121.054688 L 225.367188 110.402344 C 227.214844 110.292969 229.003906 109.910156 230.671875 109.308594 L 230.945312 109.949219 C 231.132812 110.394531 231.570312 110.65625 232.023438 110.65625 C 232.179688 110.65625 232.335938 110.628906 232.484375 110.566406 C 233.078125 110.308594 233.351562 109.621094 233.101562 109.027344 L 232.820312 108.378906 C 234.15625 107.699219 235.394531 106.882812 236.519531 105.921875 L 239.234375 108.636719 C 239.460938 108.863281 239.765625 108.980469 240.0625 108.980469 C 240.359375 108.980469 240.664062 108.863281 240.890625 108.636719 C 241.351562 108.175781 241.351562 107.433594 240.890625 106.980469 L 238.210938 104.304688 C 239.484375 102.933594 240.5625 101.371094 241.390625 99.667969 L 244.355469 101.292969 C 244.535156 101.386719 244.722656 101.433594 244.917969 101.433594 C 245.332031 101.433594 245.726562 101.214844 245.945312 100.824219 C 246.257812 100.253906 246.046875 99.542969 245.480469 99.234375 L 242.285156 97.484375 C 242.824219 95.898438 243.167969 94.230469 243.269531 92.488281 L 251.589844 92.488281 C 252.238281 92.488281 252.761719 91.964844 252.761719 91.320312 C 252.761719 90.671875 252.238281 90.148438 251.589844 90.148438 L 243.269531 90.148438 C 243.175781 88.664062 242.917969 87.222656 242.503906 85.847656 L 247.3125 83.859375 C 247.914062 83.609375 248.195312 82.929688 247.945312 82.328125 C 247.695312 81.734375 247.015625 81.445312 246.414062 81.695312 L 241.695312 83.648438 C 240.835938 81.703125 239.671875 79.925781 238.25 78.378906 L 241 75.890625 C 241.476562 75.453125 241.515625 74.71875 241.085938 74.234375 C 240.648438 73.757812 239.90625 73.71875 239.429688 74.148438 L 236.558594 76.75 C 235.425781 75.789062 234.1875 74.953125 232.851562 74.273438 L 235.941406 67.703125 C 236.214844 67.117188 235.964844 66.421875 235.378906 66.140625 C 234.792969 65.867188 234.101562 66.117188 233.820312 66.703125 L 230.703125 73.335938 C 229.019531 72.730469 227.222656 72.347656 225.359375 72.230469 L 225.359375 54.210938 C 225.359375 53.5625 224.835938 53.039062 224.1875 53.039062 C 223.539062 53.039062 223.019531 53.5625 223.019531 54.210938 L 223.019531 72.230469 C 218.742188 72.488281 214.847656 74.15625 211.78125 76.773438 Z M 207.402344 91.3125 C 207.402344 82.0625 214.925781 74.53125 224.179688 74.53125 C 233.4375 74.53125 240.960938 82.0625 240.960938 91.3125 C 240.960938 100.558594 233.4375 108.089844 224.179688 108.089844 C 214.925781 108.089844 207.402344 100.558594 207.402344 91.3125 Z M 223.011719 50.496094 L 223.011719 45.789062 C 223.011719 45.140625 223.53125 44.617188 224.179688 44.617188 C 224.828125 44.617188 225.351562 45.140625 225.351562 45.789062 L 225.351562 50.496094 C 225.351562 51.140625 224.828125 51.664062 224.179688 51.664062 C 223.53125 51.664062 223.011719 51.140625 223.011719 50.496094 Z M 223.011719 130.449219 C 223.011719 129.800781 223.53125 129.28125 224.179688 129.28125 C 224.828125 129.28125 225.351562 129.800781 225.351562 130.449219 L 225.351562 139.996094 C 225.351562 140.640625 224.828125 141.164062 224.179688 141.164062 C 223.53125 141.164062 223.011719 140.640625 223.011719 139.996094 Z M 223.011719 126.898438 L 223.011719 124.628906 C 223.011719 123.980469 223.53125 123.457031 224.179688 123.457031 C 224.828125 123.457031 225.351562 123.980469 225.351562 124.628906 L 225.351562 126.898438 C 225.351562 127.546875 224.828125 128.070312 224.179688 128.070312 C 223.53125 128.070312 223.011719 127.546875 223.011719 126.898438 Z M 269.96875 91.3125 C 269.96875 90.664062 270.492188 90.140625 271.140625 90.140625 L 277 90.140625 C 277.648438 90.140625 278.171875 90.664062 278.171875 91.3125 C 278.171875 91.957031 277.648438 92.480469 277 92.480469 L 271.140625 92.480469 C 270.492188 92.480469 269.96875 91.957031 269.96875 91.3125 Z M 255.625 90.140625 L 266.925781 90.140625 C 267.574219 90.140625 268.097656 90.664062 268.097656 91.3125 C 268.097656 91.957031 267.574219 92.480469 266.925781 92.480469 L 255.625 92.480469 C 254.976562 92.480469 254.453125 91.957031 254.453125 91.3125 C 254.453125 90.664062 254.984375 90.140625 255.625 90.140625 Z M 172.671875 90.140625 L 180.539062 90.140625 C 181.1875 90.140625 181.710938 90.664062 181.710938 91.3125 C 181.710938 91.957031 181.1875 92.480469 180.539062 92.480469 L 172.671875 92.480469 C 172.023438 92.480469 171.5 91.957031 171.5 91.3125 C 171.5 90.664062 172.023438 90.140625 172.671875 90.140625 Z M 184.402344 91.3125 C 184.402344 90.664062 184.925781 90.140625 185.574219 90.140625 L 195.554688 90.140625 C 196.203125 90.140625 196.726562 90.664062 196.726562 91.3125 C 196.726562 91.957031 196.203125 92.480469 195.554688 92.480469 L 185.574219 92.480469 C 184.925781 92.480469 184.402344 91.957031 184.402344 91.3125 Z M 259.746094 57.339844 C 259.308594 56.863281 259.347656 56.121094 259.832031 55.683594 L 261.875 53.835938 C 262.351562 53.40625 263.09375 53.4375 263.53125 53.921875 C 263.96875 54.394531 263.929688 55.136719 263.445312 55.574219 L 261.398438 57.425781 C 261.171875 57.628906 260.890625 57.730469 260.613281 57.730469 C 260.292969 57.722656 259.972656 57.597656 259.746094 57.339844 Z M 243.628906 71.917969 C 243.191406 71.441406 243.230469 70.699219 243.714844 70.261719 L 256.484375 58.703125 C 256.957031 58.273438 257.699219 58.304688 258.136719 58.789062 C 258.574219 59.265625 258.535156 60.007812 258.050781 60.445312 L 245.285156 72.003906 C 245.058594 72.207031 244.777344 72.308594 244.496094 72.308594 C 244.175781 72.308594 243.863281 72.175781 243.628906 71.917969 Z M 260.394531 126.484375 C 260.851562 126.945312 260.851562 127.6875 260.394531 128.140625 C 260.167969 128.367188 259.863281 128.484375 259.566406 128.484375 C 259.269531 128.484375 258.964844 128.367188 258.738281 128.140625 L 255.515625 124.917969 C 255.054688 124.457031 255.054688 123.714844 255.515625 123.261719 C 255.976562 122.800781 256.71875 122.800781 257.167969 123.261719 Z M 253.5 119.59375 C 253.960938 120.054688 253.960938 120.796875 253.5 121.25 C 253.273438 121.476562 252.972656 121.59375 252.675781 121.59375 C 252.378906 121.59375 252.074219 121.476562 251.847656 121.25 L 241.632812 111.03125 C 241.171875 110.574219 241.171875 109.832031 241.632812 109.378906 C 242.089844 108.917969 242.832031 108.917969 243.285156 109.378906 Z M 195.53125 120.320312 L 186.789062 129.574219 C 186.554688 129.816406 186.25 129.941406 185.9375 129.941406 C 185.648438 129.941406 185.363281 129.832031 185.136719 129.621094 C 184.667969 129.179688 184.644531 128.4375 185.089844 127.96875 L 193.828125 118.710938 C 194.273438 118.242188 195.015625 118.21875 195.484375 118.664062 C 195.953125 119.109375 195.976562 119.851562 195.53125 120.320312 Z M 196.765625 115.605469 L 199.566406 112.640625 C 200.011719 112.171875 200.75 112.148438 201.21875 112.59375 C 201.6875 113.039062 201.710938 113.78125 201.265625 114.25 L 198.464844 117.214844 C 198.238281 117.457031 197.925781 117.582031 197.613281 117.582031 C 197.324219 117.582031 197.035156 117.472656 196.8125 117.261719 C 196.34375 116.816406 196.320312 116.074219 196.765625 115.605469 Z M 185.191406 57.582031 C 184.699219 57.167969 184.628906 56.425781 185.042969 55.933594 C 185.457031 55.441406 186.195312 55.371094 186.6875 55.785156 L 188.734375 57.496094 C 189.226562 57.910156 189.296875 58.648438 188.882812 59.140625 C 188.648438 59.414062 188.320312 59.5625 187.984375 59.5625 C 187.71875 59.5625 187.453125 59.476562 187.234375 59.289062 Z M 190.324219 61.878906 C 189.832031 61.46875 189.761719 60.726562 190.175781 60.234375 C 190.589844 59.734375 191.332031 59.671875 191.824219 60.085938 L 195.164062 62.878906 C 195.65625 63.292969 195.726562 64.035156 195.3125 64.527344 C 195.078125 64.800781 194.75 64.949219 194.414062 64.949219 C 194.148438 64.949219 193.882812 64.863281 193.664062 64.675781 Z M 212.949219 65.363281 C 213.535156 65.105469 214.230469 65.378906 214.488281 65.96875 L 216.640625 70.917969 C 216.898438 71.511719 216.625 72.199219 216.03125 72.457031 C 215.882812 72.519531 215.71875 72.558594 215.566406 72.558594 C 215.113281 72.558594 214.683594 72.292969 214.488281 71.855469 L 212.332031 66.90625 C 212.089844 66.3125 212.355469 65.621094 212.949219 65.363281 Z M 211.507812 59.109375 L 213.019531 62.589844 C 213.277344 63.183594 213.003906 63.871094 212.410156 64.128906 C 212.253906 64.191406 212.097656 64.230469 211.941406 64.230469 C 211.492188 64.230469 211.0625 63.964844 210.867188 63.527344 L 209.351562 60.046875 C 209.09375 59.453125 209.367188 58.765625 209.960938 58.507812 C 210.554688 58.242188 211.242188 58.515625 211.507812 59.109375 Z M 235.496094 63.113281 L 237.394531 59.078125 C 237.667969 58.492188 238.359375 58.242188 238.953125 58.515625 C 239.539062 58.789062 239.789062 59.492188 239.515625 60.078125 L 237.621094 64.113281 C 237.425781 64.535156 237.003906 64.785156 236.558594 64.785156 C 236.394531 64.785156 236.222656 64.746094 236.058594 64.675781 C 235.472656 64.394531 235.222656 63.699219 235.496094 63.113281 Z M 252.917969 81.523438 L 250.785156 82.40625 C 250.636719 82.46875 250.488281 82.492188 250.339844 82.492188 C 249.878906 82.492188 249.441406 82.21875 249.257812 81.765625 C 249.007812 81.164062 249.296875 80.488281 249.886719 80.238281 L 252.019531 79.355469 C 252.621094 79.105469 253.296875 79.394531 253.546875 79.988281 C 253.796875 80.597656 253.507812 81.28125 252.917969 81.523438 Z M 254.5625 106.703125 C 254.375 106.703125 254.179688 106.65625 254 106.5625 L 247.242188 102.871094 C 246.671875 102.558594 246.46875 101.847656 246.773438 101.277344 C 247.085938 100.707031 247.796875 100.503906 248.367188 100.808594 L 255.125 104.5 C 255.695312 104.8125 255.898438 105.523438 255.59375 106.09375 C 255.375 106.484375 254.976562 106.703125 254.5625 106.703125 Z M 237.183594 118.625 C 237.433594 119.21875 237.160156 119.90625 236.558594 120.164062 C 236.410156 120.226562 236.253906 120.257812 236.105469 120.257812 C 235.652344 120.257812 235.214844 119.992188 235.027344 119.539062 L 232.773438 114.21875 C 232.523438 113.625 232.796875 112.9375 233.398438 112.679688 C 233.992188 112.429688 234.675781 112.703125 234.933594 113.304688 Z M 237.113281 121.460938 C 237.707031 121.210938 238.390625 121.484375 238.648438 122.082031 L 239.304688 123.636719 C 239.554688 124.230469 239.28125 124.917969 238.679688 125.175781 C 238.53125 125.238281 238.375 125.269531 238.226562 125.269531 C 237.777344 125.269531 237.339844 125.003906 237.152344 124.550781 L 236.496094 122.996094 C 236.238281 122.394531 236.519531 121.710938 237.113281 121.460938 Z M 208.867188 123.597656 C 208.28125 123.332031 208.019531 122.636719 208.28125 122.042969 L 211.015625 116.027344 C 211.28125 115.441406 211.972656 115.175781 212.566406 115.441406 C 213.152344 115.707031 213.417969 116.402344 213.152344 116.996094 L 210.421875 123.011719 C 210.226562 123.441406 209.796875 123.699219 209.351562 123.699219 C 209.1875 123.699219 209.023438 123.667969 208.867188 123.597656 Z M 197.097656 101.660156 C 197.339844 102.261719 197.050781 102.941406 196.453125 103.179688 L 194.59375 103.929688 C 194.453125 103.984375 194.304688 104.015625 194.15625 104.015625 C 193.695312 104.015625 193.25 103.742188 193.074219 103.28125 C 192.832031 102.683594 193.121094 102.003906 193.71875 101.761719 L 195.578125 101.011719 C 196.179688 100.769531 196.859375 101.058594 197.097656 101.660156 Z M 197.488281 79.722656 C 197.300781 80.167969 196.867188 80.441406 196.414062 80.441406 C 196.265625 80.441406 196.109375 80.410156 195.960938 80.347656 L 193.710938 79.402344 C 193.121094 79.152344 192.839844 78.464844 193.089844 77.871094 C 193.335938 77.277344 194.023438 76.996094 194.617188 77.246094 L 196.867188 78.191406 C 197.457031 78.433594 197.738281 79.121094 197.488281 79.722656 Z M 199.980469 82.039062 C 199.386719 81.789062 199.105469 81.101562 199.355469 80.511719 C 199.605469 79.917969 200.292969 79.636719 200.882812 79.886719 L 202.976562 80.765625 C 203.570312 81.015625 203.851562 81.703125 203.601562 82.296875 C 203.414062 82.742188 202.976562 83.015625 202.523438 83.015625 C 202.375 83.015625 202.21875 82.984375 202.070312 82.921875 Z M 81.492188 104.09375 C 81.148438 102.863281 80.96875 101.582031 80.96875 100.285156 C 80.96875 92.535156 87.269531 86.238281 95.019531 86.238281 C 97.359375 86.238281 99.613281 86.816406 101.636719 87.902344 C 103.203125 80.613281 109.621094 75.3125 117.261719 75.3125 C 123.324219 75.3125 128.796875 78.707031 131.511719 84.046875 C 133.058594 83.429688 134.695312 83.117188 136.382812 83.117188 C 143.695312 83.117188 149.648438 89.070312 149.648438 96.382812 C 149.648438 99.855469 148.3125 103.140625 145.894531 105.632812 C 145.667969 105.867188 145.355469 105.992188 145.050781 105.992188 C 144.753906 105.992188 144.464844 105.882812 144.242188 105.664062 C 143.78125 105.210938 143.765625 104.46875 144.21875 104.007812 C 146.214844 101.957031 147.316406 99.25 147.316406 96.382812 C 147.316406 90.359375 142.414062 85.457031 136.390625 85.457031 C 134.664062 85.457031 133.011719 85.847656 131.472656 86.628906 C 131.457031 86.636719 131.449219 86.636719 131.433594 86.644531 C 131.417969 86.652344 131.410156 86.660156 131.394531 86.667969 C 131.371094 86.675781 131.347656 86.683594 131.324219 86.691406 C 131.285156 86.707031 131.246094 86.714844 131.207031 86.730469 C 131.167969 86.738281 131.136719 86.746094 131.097656 86.746094 C 131.058594 86.753906 131.019531 86.753906 130.980469 86.753906 C 130.941406 86.753906 130.902344 86.753906 130.871094 86.753906 C 130.832031 86.753906 130.792969 86.746094 130.761719 86.746094 C 130.722656 86.738281 130.691406 86.730469 130.652344 86.722656 C 130.613281 86.714844 130.582031 86.699219 130.542969 86.691406 C 130.511719 86.675781 130.472656 86.660156 130.441406 86.644531 C 130.410156 86.628906 130.371094 86.613281 130.339844 86.589844 C 130.308594 86.574219 130.277344 86.550781 130.246094 86.527344 C 130.214844 86.503906 130.183594 86.480469 130.160156 86.457031 C 130.128906 86.433594 130.105469 86.402344 130.082031 86.371094 C 130.058594 86.339844 130.035156 86.316406 130.011719 86.285156 C 129.988281 86.253906 129.964844 86.214844 129.949219 86.183594 C 129.933594 86.160156 129.917969 86.144531 129.910156 86.121094 C 129.902344 86.105469 129.902344 86.097656 129.894531 86.082031 C 129.886719 86.066406 129.878906 86.058594 129.871094 86.042969 C 127.742188 80.953125 122.792969 77.660156 117.277344 77.660156 C 110.230469 77.660156 104.390625 82.9375 103.6875 89.9375 C 103.6875 89.945312 103.679688 89.953125 103.679688 89.96875 C 103.664062 90.09375 103.632812 90.21875 103.570312 90.335938 C 103.5625 90.351562 103.554688 90.367188 103.539062 90.382812 C 103.515625 90.421875 103.5 90.460938 103.46875 90.5 C 103.421875 90.570312 103.367188 90.632812 103.304688 90.6875 C 103.304688 90.6875 103.296875 90.695312 103.296875 90.695312 C 103.195312 90.78125 103.082031 90.851562 102.964844 90.90625 C 102.957031 90.90625 102.949219 90.914062 102.949219 90.914062 C 102.824219 90.960938 102.683594 90.984375 102.550781 90.992188 C 102.542969 90.992188 102.535156 90.992188 102.527344 90.992188 C 102.519531 90.992188 102.511719 90.992188 102.503906 90.992188 C 102.488281 90.992188 102.480469 90.992188 102.464844 90.992188 C 102.441406 90.992188 102.425781 90.992188 102.402344 90.992188 C 102.378906 90.992188 102.363281 90.984375 102.339844 90.976562 C 102.292969 90.96875 102.253906 90.960938 102.207031 90.953125 C 102.167969 90.945312 102.136719 90.929688 102.105469 90.921875 C 102.066406 90.90625 102.035156 90.890625 101.996094 90.875 C 101.957031 90.859375 101.917969 90.835938 101.886719 90.8125 C 101.871094 90.796875 101.847656 90.796875 101.832031 90.78125 C 99.839844 89.351562 97.484375 88.59375 95.019531 88.59375 C 88.5625 88.59375 83.3125 93.847656 83.3125 100.300781 C 83.3125 101.386719 83.460938 102.457031 83.742188 103.484375 C 83.914062 104.109375 83.554688 104.757812 82.929688 104.929688 C 82.828125 104.960938 82.71875 104.976562 82.617188 104.976562 C 82.101562 104.953125 81.632812 104.617188 81.492188 104.09375 Z M 196.445312 26.183594 C 196.445312 25.535156 196.964844 25.011719 197.613281 25.011719 L 209.351562 25.011719 C 210 25.011719 210.523438 25.535156 210.523438 26.183594 C 210.523438 26.832031 210 27.355469 209.351562 27.355469 L 197.613281 27.355469 C 196.972656 27.355469 196.445312 26.832031 196.445312 26.183594 Z M 133.265625 45.789062 C 133.265625 45.140625 133.789062 44.617188 134.4375 44.617188 L 160.964844 44.617188 C 161.613281 44.617188 162.136719 45.140625 162.136719 45.789062 C 162.136719 46.4375 161.613281 46.957031 160.964844 46.957031 L 134.4375 46.957031 C 133.789062 46.957031 133.265625 46.4375 133.265625 45.789062 Z M 169.144531 40.542969 C 169.144531 39.894531 169.667969 39.375 170.316406 39.375 L 178.132812 39.375 C 178.78125 39.375 179.304688 39.894531 179.304688 40.542969 C 179.304688 41.191406 178.78125 41.714844 178.132812 41.714844 L 170.316406 41.714844 C 169.667969 41.714844 169.144531 41.191406 169.144531 40.542969 Z M 283.304688 103.679688 C 283.304688 103.035156 283.828125 102.511719 284.476562 102.511719 L 299.359375 102.511719 C 300.007812 102.511719 300.53125 103.035156 300.53125 103.679688 C 300.53125 104.328125 300.007812 104.851562 299.359375 104.851562 L 284.476562 104.851562 C 283.835938 104.851562 283.304688 104.328125 283.304688 103.679688 Z M 290.75 160.847656 C 290.75 160.199219 291.273438 159.675781 291.921875 159.675781 L 304.746094 159.675781 C 305.394531 159.675781 305.914062 160.199219 305.914062 160.847656 C 305.914062 161.496094 305.394531 162.019531 304.746094 162.019531 L 291.921875 162.019531 C 291.273438 162.019531 290.75 161.496094 290.75 160.847656 Z M 228.566406 153.550781 L 196.015625 153.550781 C 195.367188 153.550781 194.84375 153.027344 194.84375 152.378906 C 194.84375 151.734375 195.367188 151.210938 196.015625 151.210938 L 228.566406 151.210938 C 229.214844 151.210938 229.738281 151.734375 229.738281 152.378906 C 229.738281 153.027344 229.214844 153.550781 228.566406 153.550781 Z M 241.21875 160.847656 C 241.21875 161.496094 240.695312 162.019531 240.046875 162.019531 L 224.179688 162.019531 C 223.53125 162.019531 223.011719 161.496094 223.011719 160.847656 C 223.011719 160.199219 223.53125 159.675781 224.179688 159.675781 L 240.046875 159.675781 C 240.695312 159.675781 241.21875 160.199219 241.21875 160.847656 Z M 114.902344 128.484375 L 102.511719 128.484375 C 101.863281 128.484375 101.339844 127.960938 101.339844 127.3125 C 101.339844 126.664062 101.863281 126.140625 102.511719 126.140625 L 114.902344 126.140625 C 115.550781 126.140625 116.074219 126.664062 116.074219 127.3125 C 116.074219 127.960938 115.550781 128.484375 114.902344 128.484375 Z M 152.253906 135.226562 C 152.253906 135.875 151.734375 136.398438 151.085938 136.398438 L 116.871094 136.398438 C 116.222656 136.398438 115.699219 135.875 115.699219 135.226562 C 115.699219 134.578125 116.222656 134.054688 116.871094 134.054688 L 151.085938 134.054688 C 151.734375 134.054688 152.253906 134.578125 152.253906 135.226562 Z M 76.03125 157.648438 C 76.03125 157 76.554688 156.476562 77.199219 156.476562 L 89.945312 156.476562 C 90.59375 156.476562 91.117188 157 91.117188 157.648438 C 91.117188 158.296875 90.59375 158.820312 89.945312 158.820312 L 77.199219 158.820312 C 76.554688 158.820312 76.03125 158.296875 76.03125 157.648438 Z M 76.03125 157.648438 " fill-opacity="1" fill-rule="nonzero"/></svg>